<svg width="21" height="10" viewBox="0 0 21 10" fill="none" xmlns="http://www.w3.org/2000/svg">
<path d="M1.84875 0.455163C1.54784 0.170507 1.07315 0.183678 0.788497 0.484582C0.50384 0.785486 0.517012 1.26018 0.817916 1.54483L1.84875 0.455163ZM9.13016 8.37583L8.61474 8.92067L8.61474 8.92067L9.13016 8.37583ZM12.2032 8.37583L11.6878 7.83099L11.6878 7.83099L12.2032 8.37583ZM20.5154 1.54484C20.8163 1.26018 20.8295 0.785488 20.5448 0.484584C20.2602 0.18368 19.7855 0.170508 19.4846 0.455165L20.5154 1.54484ZM0.817916 1.54483L8.61474 8.92067L9.64557 7.831L1.84875 0.455163L0.817916 1.54483ZM12.7186 8.92066L20.5154 1.54484L19.4846 0.455165L11.6878 7.83099L12.7186 8.92066ZM8.61474 8.92067C9.78364 10.0264 11.5497 10.0264 12.7186 8.92066L11.6878 7.83099C11.0972 8.38967 10.2361 8.38967 9.64557 7.831L8.61474 8.92067Z" fill="#7C7C7C"/>
</svg>
