<svg width="20" height="12" viewBox="0 0 20 12" fill="none" xmlns="http://www.w3.org/2000/svg">
<path d="M15.0904 0.481753C14.8041 0.1824 14.3293 0.171808 14.03 0.458095C13.7306 0.744383 13.72 1.21914 14.0063 1.51849L15.0904 0.481753ZM18.7666 5.41087L18.2245 5.92924L18.7666 5.41087ZM18.7666 6.58938L18.2245 6.07101V6.07101L18.7666 6.58938ZM14.0063 10.4818C13.72 10.7811 13.7306 11.2559 14.03 11.5421C14.3293 11.8284 14.8041 11.8178 15.0904 11.5185L14.0063 10.4818ZM18.5332 6.75012C18.9474 6.75012 19.2832 6.41434 19.2832 6.00012C19.2832 5.58591 18.9474 5.25012 18.5332 5.25012V6.75012ZM1 5.25012C0.585786 5.25012 0.25 5.58591 0.25 6.00012C0.25 6.41434 0.585786 6.75012 1 6.75012V5.25012ZM14.0063 1.51849L18.2245 5.92924L19.3086 4.8925L15.0904 0.481753L14.0063 1.51849ZM18.2245 6.07101L14.0063 10.4818L15.0904 11.5185L19.3086 7.10775L18.2245 6.07101ZM18.2245 5.92924C18.2382 5.94349 18.25 5.96731 18.25 6.00012C18.25 6.03293 18.2382 6.05675 18.2245 6.07101L19.3086 7.10775C19.8971 6.49236 19.8971 5.50789 19.3086 4.8925L18.2245 5.92924ZM18.5332 5.25012H1V6.75012H18.5332V5.25012Z" fill="white"/>
</svg>
