<svg width="14" height="9" viewBox="0 0 14 9" fill="none" xmlns="http://www.w3.org/2000/svg">
<path d="M10.1725 1.17975C9.88621 0.880397 9.41146 0.869806 9.1121 1.15609C8.81275 1.44238 8.80216 1.91714 9.08845 2.21649L10.1725 1.17975ZM12.1614 4.34457L11.6194 4.86294V4.86294L12.1614 4.34457ZM12.1614 5.05167L11.6194 4.5333V4.5333L12.1614 5.05167ZM9.08845 7.17975C8.80216 7.4791 8.81275 7.95386 9.1121 8.24015C9.41146 8.52643 9.88621 8.51584 10.1725 8.21649L9.08845 7.17975ZM12.0214 5.44812C12.4356 5.44812 12.7714 5.11233 12.7714 4.69812C12.7714 4.28391 12.4356 3.94812 12.0214 3.94812V5.44812ZM1.50146 3.94812C1.08725 3.94812 0.751465 4.28391 0.751465 4.69812C0.751465 5.11233 1.08725 5.44812 1.50146 5.44812V3.94812ZM9.08845 2.21649L11.6194 4.86294L12.7034 3.8262L10.1725 1.17975L9.08845 2.21649ZM11.6194 4.5333L9.08845 7.17975L10.1725 8.21649L12.7034 5.57004L11.6194 4.5333ZM11.6194 4.86294C11.5708 4.81211 11.5515 4.75062 11.5515 4.69812C11.5515 4.64562 11.5708 4.58413 11.6194 4.5333L12.7034 5.57004C13.1675 5.08483 13.1675 4.31141 12.7034 3.8262L11.6194 4.86294ZM12.0214 3.94812H1.50146V5.44812H12.0214V3.94812Z" fill="white"/>
</svg>
