<svg width="20" height="12" viewBox="0 0 20 12" fill="none" xmlns="http://www.w3.org/2000/svg">
<path d="M15.0904 0.481631C14.8041 0.182277 14.3293 0.171686 14.03 0.457973C13.7306 0.744261 13.72 1.21902 14.0063 1.51837L15.0904 0.481631ZM18.7666 5.41074L18.2245 5.92911L18.7666 5.41074ZM18.7666 6.58926L18.2245 6.07089V6.07089L18.7666 6.58926ZM14.0063 10.4816C13.72 10.781 13.7306 11.2557 14.03 11.542C14.3293 11.8283 14.8041 11.8177 15.0904 11.5184L14.0063 10.4816ZM18.5332 6.75C18.9474 6.75 19.2832 6.41421 19.2832 6C19.2832 5.58579 18.9474 5.25 18.5332 5.25V6.75ZM1 5.25C0.585786 5.25 0.25 5.58579 0.25 6C0.25 6.41421 0.585786 6.75 1 6.75V5.25ZM14.0063 1.51837L18.2245 5.92911L19.3086 4.89237L15.0904 0.481631L14.0063 1.51837ZM18.2245 6.07089L14.0063 10.4816L15.0904 11.5184L19.3086 7.10762L18.2245 6.07089ZM18.2245 5.92911C18.2382 5.94337 18.25 5.96719 18.25 6C18.25 6.03281 18.2382 6.05663 18.2245 6.07089L19.3086 7.10763C19.8971 6.49224 19.8971 5.50776 19.3086 4.89237L18.2245 5.92911ZM18.5332 5.25H1V6.75H18.5332V5.25Z" fill="#7C7C7C"/>
</svg>
