<svg width="22" height="22" viewBox="0 0 22 22" fill="none" xmlns="http://www.w3.org/2000/svg">
<path fill-rule="evenodd" clip-rule="evenodd" d="M0 4.4C0 3.23305 0.46357 2.11389 1.28873 1.28873C2.11389 0.46357 3.23305 0 4.4 0H17.6C18.767 0 19.8861 0.46357 20.7113 1.28873C21.5364 2.11389 22 3.23305 22 4.4V17.6C22 18.767 21.5364 19.8861 20.7113 20.7113C19.8861 21.5364 18.767 22 17.6 22H4.4C3.23305 22 2.11389 21.5364 1.28873 20.7113C0.46357 19.8861 0 18.767 0 17.6V4.4ZM4.4 2.2C3.81652 2.2 3.25695 2.43179 2.84437 2.84437C2.43179 3.25695 2.2 3.81652 2.2 4.4V17.6C2.2 18.1835 2.43179 18.7431 2.84437 19.1556C3.25695 19.5682 3.81652 19.8 4.4 19.8H11V12.1H9.9C9.60826 12.1 9.32847 11.9841 9.12218 11.7778C8.91589 11.5715 8.8 11.2917 8.8 11C8.8 10.7083 8.91589 10.4285 9.12218 10.2222C9.32847 10.0159 9.60826 9.9 9.9 9.9H11V8.25C11 7.22892 11.4056 6.24965 12.1276 5.52764C12.8497 4.80562 13.8289 4.4 14.85 4.4H15.51C15.8017 4.4 16.0815 4.51589 16.2878 4.72218C16.4941 4.92847 16.61 5.20826 16.61 5.5C16.61 5.79174 16.4941 6.07153 16.2878 6.27782C16.0815 6.48411 15.8017 6.6 15.51 6.6H14.85C14.6333 6.6 14.4188 6.64268 14.2186 6.7256C14.0184 6.80852 13.8365 6.93006 13.6833 7.08327C13.5301 7.23649 13.4085 7.41839 13.3256 7.61857C13.2427 7.81876 13.2 8.03332 13.2 8.25V9.9H15.51C15.8017 9.9 16.0815 10.0159 16.2878 10.2222C16.4941 10.4285 16.61 10.7083 16.61 11C16.61 11.2917 16.4941 11.5715 16.2878 11.7778C16.0815 11.9841 15.8017 12.1 15.51 12.1H13.2V19.8H17.6C18.1835 19.8 18.7431 19.5682 19.1556 19.1556C19.5682 18.7431 19.8 18.1835 19.8 17.6V4.4C19.8 3.81652 19.5682 3.25695 19.1556 2.84437C18.7431 2.43179 18.1835 2.2 17.6 2.2H4.4Z" fill="white"/>
</svg>
