<svg width="22" height="22" viewBox="0 0 22 22" fill="none" xmlns="http://www.w3.org/2000/svg">
<path fill-rule="evenodd" clip-rule="evenodd" d="M4.4 0C3.23305 0 2.11389 0.46357 1.28873 1.28873C0.46357 2.11389 0 3.23305 0 4.4V17.6C0 18.767 0.46357 19.8861 1.28873 20.7113C2.11389 21.5364 3.23305 22 4.4 22H17.6C18.767 22 19.8861 21.5364 20.7113 20.7113C21.5364 19.8861 22 18.767 22 17.6V4.4C22 3.23305 21.5364 2.11389 20.7113 1.28873C19.8861 0.46357 18.767 0 17.6 0H4.4ZM2.2 4.4C2.2 3.81652 2.43179 3.25695 2.84437 2.84437C3.25695 2.43179 3.81652 2.2 4.4 2.2H17.6C18.1835 2.2 18.7431 2.43179 19.1556 2.84437C19.5682 3.25695 19.8 3.81652 19.8 4.4V17.6C19.8 18.1835 19.5682 18.7431 19.1556 19.1556C18.7431 19.5682 18.1835 19.8 17.6 19.8H4.4C3.81652 19.8 3.25695 19.5682 2.84437 19.1556C2.43179 18.7431 2.2 18.1835 2.2 17.6V4.4ZM7.7 9.9C7.7 9.60826 7.58411 9.32847 7.37782 9.12218C7.17153 8.91589 6.89174 8.8 6.6 8.8C6.30826 8.8 6.02847 8.91589 5.82218 9.12218C5.61589 9.32847 5.5 9.60826 5.5 9.9V16.5C5.5 16.7917 5.61589 17.0715 5.82218 17.2778C6.02847 17.4841 6.30826 17.6 6.6 17.6C6.89174 17.6 7.17153 17.4841 7.37782 17.2778C7.58411 17.0715 7.7 16.7917 7.7 16.5V9.9ZM8.25 6.05C8.25 6.48761 8.07616 6.90729 7.76673 7.21673C7.45729 7.52616 7.03761 7.7 6.6 7.7C6.16239 7.7 5.74271 7.52616 5.43327 7.21673C5.12384 6.90729 4.95 6.48761 4.95 6.05C4.95 5.61239 5.12384 5.19271 5.43327 4.88327C5.74271 4.57384 6.16239 4.4 6.6 4.4C7.03761 4.4 7.45729 4.57384 7.76673 4.88327C8.07616 5.19271 8.25 5.61239 8.25 6.05ZM11 8.8C11.374 8.8 11.704 8.987 11.902 9.2708C12.4689 8.96181 13.1043 8.79994 13.75 8.8C16.126 8.8 17.6 10.9186 17.6 12.7281V16.5C17.6 16.7917 17.4841 17.0715 17.2778 17.2778C17.0715 17.4841 16.7917 17.6 16.5 17.6C16.2083 17.6 15.9285 17.4841 15.7222 17.2778C15.5159 17.0715 15.4 16.7917 15.4 16.5V12.727C15.4 11.8822 14.674 10.9989 13.75 10.9989C13.1736 10.9989 12.5367 11.3124 12.1 12.0582V16.5C12.1 16.7917 11.9841 17.0715 11.7778 17.2778C11.5715 17.4841 11.2917 17.6 11 17.6C10.7083 17.6 10.4285 17.4841 10.2222 17.2778C10.0159 17.0715 9.9 16.7917 9.9 16.5V9.9C9.9 9.60826 10.0159 9.32847 10.2222 9.12218C10.4285 8.91589 10.7083 8.8 11 8.8Z" fill="white"/>
</svg>
