<svg width="18" height="20" viewBox="0 0 18 20" fill="none" xmlns="http://www.w3.org/2000/svg">
<path d="M16.4697 8.97804C16.7626 9.27094 17.2374 9.27094 17.5303 8.97805C17.8232 8.68515 17.8232 8.21028 17.5303 7.91738L16.4697 8.97804ZM9.94281 1.39052L9.41248 1.92085L9.41248 1.92085L9.94281 1.39052ZM8.05719 1.39052L8.58752 1.92085L8.58752 1.92085L8.05719 1.39052ZM0.469669 7.91738C0.176777 8.21028 0.176777 8.68515 0.469669 8.97804C0.762563 9.27094 1.23744 9.27094 1.53033 8.97804L0.469669 7.91738ZM9.75 1.78105C9.75 1.36683 9.41421 1.03105 9 1.03105C8.58579 1.03105 8.25 1.36683 8.25 1.78105L9.75 1.78105ZM8.25 19.1144C8.25 19.5286 8.58578 19.8644 9 19.8644C9.41421 19.8644 9.75 19.5286 9.75 19.1144L8.25 19.1144ZM17.5303 7.91738L10.4731 0.860194L9.41248 1.92085L16.4697 8.97804L17.5303 7.91738ZM7.52686 0.860194L0.469669 7.91738L1.53033 8.97804L8.58752 1.92085L7.52686 0.860194ZM10.4731 0.860194C9.65955 0.0466016 8.34045 0.0466015 7.52686 0.860194L8.58752 1.92085C8.81533 1.69305 9.18467 1.69305 9.41248 1.92085L10.4731 0.860194ZM8.25 1.78105L8.25 19.1144L9.75 19.1144L9.75 1.78105L8.25 1.78105Z" fill="url(#paint0_linear)"/>
<defs>
<linearGradient id="paint0_linear" x1="1.00001" y1="0.999999" x2="1.00001" y2="19.1144" gradientUnits="userSpaceOnUse">
<stop stop-color="#941BF2"/>
<stop offset="1" stop-color="#F51667"/>
</linearGradient>
</defs>
</svg>
