<svg width="27" height="22" viewBox="0 0 27 22" fill="none" xmlns="http://www.w3.org/2000/svg">
<path fill-rule="evenodd" clip-rule="evenodd" d="M16.7414 2.51417C16.1671 2.51393 15.6 2.64119 15.0809 2.88676C14.5618 3.13233 14.1037 3.49009 13.7397 3.9342C13.3757 4.37832 13.1148 4.89773 12.9759 5.45492C12.837 6.01211 12.8235 6.59319 12.9365 7.15622C12.9754 7.3513 12.9674 7.55282 12.9132 7.74423C12.8591 7.93563 12.7603 8.11145 12.6249 8.25722C12.4896 8.403 12.3216 8.51457 12.1347 8.58277C11.9478 8.65097 11.7475 8.67384 11.55 8.64952C8.84717 8.31749 6.29925 7.20644 4.21677 5.45174C4.25573 6.20845 4.51844 7.01292 5.08786 7.8551L5.94135 9.11712L4.53981 9.71418L4.26956 9.82983C4.47068 10.0599 4.71202 10.2949 4.98227 10.5275C5.34355 10.8367 5.72574 11.1206 6.12613 11.3772L6.13996 11.386H6.14121L8.08703 12.5663L6.05071 13.5844C5.95015 13.6347 5.84959 13.68 5.74903 13.7202C6.18689 14.084 6.66926 14.3907 7.18451 14.6328L8.93172 15.4586L7.46859 16.7206C6.6704 17.4095 5.86719 17.9236 4.82515 18.1951C6.42333 19.0464 8.207 19.4898 10.0178 19.486C16.0588 19.486 20.9234 14.6655 20.9234 8.75887V8.10524L21.4576 7.7294C22.2922 7.14365 22.8818 6.35175 23.3041 5.44546H20.589L20.2471 4.72898C19.9323 4.06613 19.4359 3.50618 18.8156 3.11414C18.1953 2.7221 17.4765 2.51406 16.7426 2.51417H16.7414ZM2.56257 11.6902C2.44396 11.826 2.35596 11.9858 2.30456 12.1586C2.25316 12.3315 2.23955 12.5134 2.26467 12.692C2.40671 13.6988 3.0088 14.5661 3.67501 15.2286C3.85601 15.4083 4.04959 15.5805 4.25322 15.7452L4.15895 15.7703C3.55434 15.9212 2.73855 15.9526 1.37975 15.8206C1.12315 15.7954 0.865009 15.8498 0.640333 15.9763C0.415657 16.1028 0.235313 16.2953 0.123754 16.5277C0.0121942 16.7602 -0.0251844 17.0213 0.0166859 17.2757C0.0585562 17.5301 0.17765 17.7655 0.35782 17.95C1.61578 19.2358 3.11853 20.2566 4.77741 20.9522C6.43629 21.6477 8.21769 22.004 10.0165 22C17.1977 22 23.0879 16.424 23.421 9.38737C25.0425 8.02605 25.8533 6.18205 26.2907 4.50649C26.3393 4.32052 26.3447 4.12587 26.3063 3.93752C26.2679 3.74916 26.1869 3.57212 26.0693 3.42C25.9518 3.26789 25.801 3.14475 25.6284 3.06006C25.4559 2.97537 25.2662 2.93138 25.0739 2.93149H22.1163C21.3928 1.80815 20.3355 0.939716 19.0931 0.448225C17.8506 -0.043265 16.4854 -0.133111 15.1892 0.191312C13.893 0.515734 12.7311 1.23812 11.8666 2.25696C11.0022 3.2758 10.4787 4.53988 10.3697 5.87158C8.05266 5.26841 5.97948 3.96197 4.43548 2.13204C4.29875 1.97037 4.12338 1.84586 3.92567 1.77007C3.72796 1.69428 3.51431 1.66966 3.30454 1.69849C3.09477 1.72733 2.89569 1.8087 2.72576 1.93503C2.55584 2.06136 2.42058 2.22858 2.33254 2.42115C1.57081 4.08289 1.425 5.99853 2.27472 7.94686L1.98059 8.07256C1.69912 8.1925 1.47105 8.41098 1.33915 8.68705C1.20725 8.96311 1.18057 9.27781 1.26411 9.57214C1.49791 10.3917 2.02333 11.1157 2.56132 11.6902H2.56257Z" fill="white"/>
</svg>
