<svg width="22" height="26" viewBox="0 0 22 26" fill="none" xmlns="http://www.w3.org/2000/svg">
<path fill-rule="evenodd" clip-rule="evenodd" d="M16.0289 0.960205C16.2508 2.44932 15.6388 3.90566 14.8333 4.93737C13.9705 6.04258 12.4837 6.89894 11.0471 6.85466C10.7848 5.42976 11.4585 3.96367 12.2743 2.97535C13.173 1.88653 14.7126 1.05098 16.0289 0.960205ZM20.3548 21.9047C21.0978 20.7778 21.3738 20.2089 21.9508 18.9332C17.7607 17.3537 17.087 11.4473 21.234 9.18021C19.9683 7.60653 18.1921 6.6957 16.5158 6.6957C15.3059 6.6957 14.4771 7.00845 13.7238 7.2927C13.0963 7.52946 12.5213 7.74645 11.8221 7.74645C11.0669 7.74645 10.3979 7.50858 9.69711 7.25938C8.92623 6.98528 8.11682 6.69747 7.11185 6.69747C5.22786 6.69747 3.22448 7.83899 1.95429 9.78994C0.167047 12.5353 0.469729 17.6991 3.36784 22.0991C4.40414 23.6724 5.7884 25.4418 7.59827 25.4582C8.34786 25.465 8.8471 25.2431 9.38744 25.0029C10.0065 24.7278 10.6795 24.4286 11.8447 24.422C13.017 24.4156 13.6787 24.7182 14.2894 24.9974C14.8158 25.2381 15.3042 25.4614 16.0489 25.4546C17.8584 25.4373 19.319 23.4784 20.3548 21.9047Z" fill="white"/>
</svg>
