<svg width="105" height="24" viewBox="0 0 105 24" fill="none" xmlns="http://www.w3.org/2000/svg">
<path fill-rule="evenodd" clip-rule="evenodd" d="M3.90624 8.89108C6.40279 8.89108 7.97067 7.10611 7.97067 4.87489C7.97067 2.6678 6.40279 0.846652 3.90624 0.846652H1.33733V8.89108H3.90624ZM3.90623 8.26393H2.02478V1.4738H3.90623C6.04096 1.4738 7.24702 2.99344 7.24702 4.8749C7.24702 6.75635 6.0289 8.26393 3.90623 8.26393ZM13.2894 9.03581C15.6412 9.03581 17.197 7.22672 17.197 4.8749C17.197 2.52308 15.6412 0.713989 13.2894 0.713989C10.9255 0.713989 9.38176 2.52308 9.38176 4.8749C9.38176 7.22672 10.9255 9.03581 13.2894 9.03581ZM13.2895 8.40866C11.3477 8.40866 10.1055 6.90108 10.1055 4.8749C10.1055 2.83666 11.3477 1.34114 13.2895 1.34114C15.2192 1.34114 16.4735 2.83666 16.4735 4.8749C16.4735 6.90108 15.2192 8.40866 13.2895 8.40866ZM25.8324 8.89108L28.1239 0.846652H27.352L25.4103 7.92623L23.4444 0.846652H22.8173L20.8393 7.92623L18.8976 0.846652H18.1257L20.4293 8.89108H21.2011L23.1308 1.98035L25.0605 8.89108H25.8324ZM35.7825 8.89108V0.846652H35.095V7.66089L30.0537 0.846652H29.3542V8.89108H30.0416V1.98035L35.1071 8.89108H35.7825ZM42.2108 8.89108V8.26393H38.3152V0.846652H37.6157V8.89108H42.2108ZM47.228 9.03581C49.5798 9.03581 51.1356 7.22672 51.1356 4.8749C51.1356 2.52308 49.5798 0.713989 47.228 0.713989C44.8641 0.713989 43.3203 2.52308 43.3203 4.8749C43.3203 7.22672 44.8641 9.03581 47.228 9.03581ZM47.2279 8.40866C45.2862 8.40866 44.0439 6.90108 44.0439 4.8749C44.0439 2.83666 45.2862 1.34114 47.2279 1.34114C49.1576 1.34114 50.4119 2.83666 50.4119 4.8749C50.4119 6.90108 49.1576 8.40866 47.2279 8.40866ZM59.4574 8.89108L56.1649 0.846652H55.3086L52.016 8.89108H52.812L53.608 6.91314H57.8654L58.6614 8.89108H59.4574ZM57.6363 6.28598H53.8372L55.7428 1.58235L57.6363 6.28598ZM63.2082 8.89108C65.7048 8.89108 67.2727 7.10611 67.2727 4.87489C67.2727 2.6678 65.7048 0.846652 63.2082 0.846652H60.6393V8.89108H63.2082ZM63.2082 8.26393H61.3268V1.4738H63.2082C65.343 1.4738 66.549 2.99344 66.549 4.8749C66.549 6.75635 65.3309 8.26393 63.2082 8.26393ZM72.7965 8.89108V5.07993H77.1262V4.45277H72.7965V1.4738H77.2107V0.846652H72.109V8.89108H72.7965ZM84.1937 8.89108L81.866 5.51411C83.0721 5.46586 84.0973 4.6578 84.0973 3.19847C84.0973 1.72708 83.0359 0.846652 81.6489 0.846652H78.6459V8.89108H79.3333V5.56235H81.1062L83.3616 8.89108H84.1937ZM81.5886 4.9352H79.3333V1.4738H81.5886C82.662 1.4738 83.3736 2.18538 83.3736 3.19847C83.3736 4.21156 82.662 4.9352 81.5886 4.9352ZM89.416 9.03581C91.7678 9.03581 93.3236 7.22672 93.3236 4.8749C93.3236 2.52308 91.7678 0.713989 89.416 0.713989C87.0521 0.713989 85.5083 2.52308 85.5083 4.8749C85.5083 7.22672 87.0521 9.03581 89.416 9.03581ZM89.416 8.40866C87.4742 8.40866 86.232 6.90108 86.232 4.8749C86.232 2.83666 87.4742 1.34114 89.416 1.34114C91.3456 1.34114 92.6 2.83666 92.6 4.8749C92.6 6.90108 91.3456 8.40866 89.416 8.40866ZM102.55 8.89108V0.846652H101.513L98.7871 7.54029L96.0493 0.846652H95.0242V8.89108H95.7116V1.71502L98.6544 8.89108H98.9198L101.85 1.71502V8.89108H102.55ZM8.63403 23.213L5.53445 15.1686H3.38766L0.288086 23.213H2.22984L2.73639 21.8502H6.18572L6.69227 23.213H8.63403ZM5.71532 20.3426H3.20671L4.46102 16.8812L5.71532 20.3426ZM11.0944 23.213V20.3426H13.1447C14.8814 20.3426 15.8462 19.1607 15.8462 17.7617C15.8462 16.3506 14.8935 15.1686 13.1447 15.1686H9.38176V23.213H11.0944ZM12.9035 18.835H11.0944V16.6762H12.9035C13.5789 16.6762 14.0975 17.0863 14.0975 17.7617C14.0975 18.425 13.5789 18.835 12.9035 18.835ZM18.6322 23.213V20.3426H20.6825C22.4193 20.3426 23.3841 19.1607 23.3841 17.7617C23.3841 16.3506 22.4313 15.1686 20.6825 15.1686H16.9196V23.213H18.6322ZM20.4414 18.835H18.6323V16.6762H20.4414C21.1168 16.6762 21.6354 17.0863 21.6354 17.7617C21.6354 18.425 21.1168 18.835 20.4414 18.835ZM29.5109 23.213V21.7055H26.1099V15.1686H24.3852V23.213H29.5109ZM36.3613 23.213V21.7055H32.3813V19.8723H36.2769V18.3647H32.3813V16.6762H36.3613V15.1686H30.6687V23.213H36.3613ZM48.3014 23.213L45.2018 15.1686H43.055L39.9554 23.213H41.8972L42.4037 21.8502H45.8531L46.3596 23.213H48.3014ZM45.3827 20.3426H42.8741L44.1284 16.8812L45.3827 20.3426ZM50.7617 23.213V20.3426H52.812C54.5487 20.3426 55.5136 19.1607 55.5136 17.7617C55.5136 16.3506 54.5608 15.1686 52.812 15.1686H49.0491V23.213H50.7617ZM52.5708 18.835H50.7617V16.6762H52.5708C53.2462 16.6762 53.7648 17.0863 53.7648 17.7617C53.7648 18.425 53.2462 18.835 52.5708 18.835ZM58.2996 23.213V20.3426H60.3499C62.0866 20.3426 63.0515 19.1607 63.0515 17.7617C63.0515 16.3506 62.0987 15.1686 60.3499 15.1686H56.587V23.213H58.2996ZM60.1087 18.835H58.2996V16.6762H60.1087C60.7841 16.6762 61.3027 17.0863 61.3027 17.7617C61.3027 18.425 60.7841 18.835 60.1087 18.835ZM70.0948 23.3578C72.2537 23.3578 73.315 22.2482 73.315 20.7768C73.315 17.7737 68.6958 18.63 68.6958 17.3637C68.6958 16.8812 69.1059 16.5677 69.8295 16.5677C70.6496 16.5677 71.518 16.8451 72.1693 17.4481L73.1221 16.1697C72.3261 15.434 71.2647 15.048 69.9863 15.048C68.0928 15.048 66.935 16.1576 66.935 17.4963C66.935 20.5235 71.5662 19.5466 71.5662 20.9457C71.5662 21.416 71.12 21.8381 70.1672 21.8381C69.0576 21.8381 68.1772 21.3316 67.6104 20.7406L66.6696 22.0794C67.4295 22.8392 68.539 23.3578 70.0948 23.3578ZM78.0428 23.213V16.6762H80.3826V15.1686H73.9663V16.6762H76.3182V23.213H78.0428ZM85.3033 23.3578C87.7274 23.3578 89.5004 21.621 89.5004 19.1969C89.5004 16.7727 87.7274 15.036 85.3033 15.036C82.867 15.036 81.0941 16.7727 81.0941 19.1969C81.0941 21.621 82.867 23.3578 85.3033 23.3578ZM85.3033 21.8381C83.8078 21.8381 82.855 20.6924 82.855 19.1969C82.855 17.6893 83.8078 16.5556 85.3033 16.5556C86.7868 16.5556 87.7395 17.6893 87.7395 19.1969C87.7395 20.6924 86.7868 21.8381 85.3033 21.8381ZM97.2313 23.213L95.4101 20.1497C96.2785 19.9446 97.183 19.1727 97.183 17.7617C97.183 16.2661 96.1458 15.1686 94.4694 15.1686H90.7065V23.213H92.4191V20.3547H93.6734L95.2533 23.213H97.2313ZM94.2281 18.8471H92.4191V16.6762H94.2281C94.9035 16.6762 95.4221 17.0863 95.4221 17.7496C95.4221 18.437 94.9035 18.8471 94.2281 18.8471ZM104.154 23.213V21.7055H100.174V19.8723H104.07V18.3647H100.174V16.6762H104.154V15.1686H98.4614V23.213H104.154Z" fill="white"/>
</svg>
