<svg width="655" height="655" viewBox="0 0 655 655" fill="none" xmlns="http://www.w3.org/2000/svg">
<path fill-rule="evenodd" clip-rule="evenodd" d="M363.948 1.01713C431.81 0.249561 498.921 25.3011 550.979 70.676C600.91 114.196 626.483 178.834 643.182 244.399C659.094 306.878 655.97 370.278 643.406 433.58C629.336 504.468 623.064 587.47 566.695 629.77C510.36 672.043 433.279 646.922 363.948 643.287C298.679 639.866 231.678 644.055 175.498 609.262C115.955 572.386 74.135 512.602 46.2458 446.53C15.8719 374.571 -15.5173 293.038 10.9456 219.421C37.1429 146.542 115.629 114.603 179.843 74.8738C237.805 39.0122 296.544 1.77952 363.948 1.01713Z" stroke="#A987E4" stroke-width="2"/>
</svg>
