<svg width="124" height="24" viewBox="0 0 124 24" fill="none" xmlns="http://www.w3.org/2000/svg">
<path fill-rule="evenodd" clip-rule="evenodd" d="M3.82447 8.89108C6.32102 8.89108 7.8889 7.10611 7.8889 4.87489C7.8889 2.6678 6.32102 0.846652 3.82447 0.846652H1.25556V8.89108H3.82447ZM3.82446 8.26393H1.94301V1.4738H3.82446C5.95919 1.4738 7.16525 2.99344 7.16525 4.8749C7.16525 6.75635 5.94713 8.26393 3.82446 8.26393ZM13.2076 9.03581C15.5594 9.03581 17.1153 7.22672 17.1153 4.8749C17.1153 2.52308 15.5594 0.713989 13.2076 0.713989C10.8437 0.713989 9.29999 2.52308 9.29999 4.8749C9.29999 7.22672 10.8437 9.03581 13.2076 9.03581ZM13.2076 8.40866C11.2658 8.40866 10.0236 6.90108 10.0236 4.8749C10.0236 2.83666 11.2658 1.34114 13.2076 1.34114C15.1373 1.34114 16.3916 2.83666 16.3916 4.8749C16.3916 6.90108 15.1373 8.40866 13.2076 8.40866ZM25.7506 8.89108L28.0421 0.846652H27.2703L25.3285 7.92623L23.3626 0.846652H22.7355L20.7575 7.92623L18.8158 0.846652H18.0439L20.3475 8.89108H21.1194L23.0491 1.98035L24.9788 8.89108H25.7506ZM35.7006 8.89108V0.846652H35.0132V7.66089L29.9718 0.846652H29.2723V8.89108H29.9598V1.98035L35.0252 8.89108H35.7006ZM42.1289 8.89108V8.26393H38.2333V0.846652H37.5338V8.89108H42.1289ZM47.1461 9.03581C49.4979 9.03581 51.0537 7.22672 51.0537 4.8749C51.0537 2.52308 49.4979 0.713989 47.1461 0.713989C44.7822 0.713989 43.2385 2.52308 43.2385 4.8749C43.2385 7.22672 44.7822 9.03581 47.1461 9.03581ZM47.1461 8.40866C45.2043 8.40866 43.9621 6.90108 43.9621 4.8749C43.9621 2.83666 45.2043 1.34114 47.1461 1.34114C49.0758 1.34114 50.3301 2.83666 50.3301 4.8749C50.3301 6.90108 49.0758 8.40866 47.1461 8.40866ZM59.3756 8.89108L56.083 0.846652H55.2267L51.9342 8.89108H52.7302L53.5262 6.91314H57.7836L58.5796 8.89108H59.3756ZM57.5544 6.286H53.7553L55.6609 1.58236L57.5544 6.286ZM63.1265 8.89108C65.623 8.89108 67.1909 7.10611 67.1909 4.87489C67.1909 2.6678 65.623 0.846652 63.1265 0.846652H60.5576V8.89108H63.1265ZM63.1265 8.26393H61.245V1.4738H63.1265C65.2612 1.4738 66.4672 2.99344 66.4672 4.8749C66.4672 6.75635 65.2491 8.26393 63.1265 8.26393ZM72.7146 8.89108V5.07993H77.0444V4.45277H72.7146V1.4738H77.1288V0.846652H72.0272V8.89108H72.7146ZM84.1119 8.89108L81.7842 5.51411C82.9902 5.46586 84.0154 4.6578 84.0154 3.19847C84.0154 1.72708 82.9541 0.846652 81.5671 0.846652H78.564V8.89108H79.2515V5.56235H81.0244L83.2797 8.89108H84.1119ZM81.5068 4.9352H79.2514V1.4738H81.5068C82.5802 1.4738 83.2918 2.18538 83.2918 3.19847C83.2918 4.21156 82.5802 4.9352 81.5068 4.9352ZM89.3341 9.03581C91.6859 9.03581 93.2418 7.22672 93.2418 4.8749C93.2418 2.52308 91.6859 0.713989 89.3341 0.713989C86.9702 0.713989 85.4265 2.52308 85.4265 4.8749C85.4265 7.22672 86.9702 9.03581 89.3341 9.03581ZM89.3341 8.40866C87.3923 8.40866 86.1501 6.90108 86.1501 4.8749C86.1501 2.83666 87.3923 1.34114 89.3341 1.34114C91.2638 1.34114 92.5181 2.83666 92.5181 4.8749C92.5181 6.90108 91.2638 8.40866 89.3341 8.40866ZM102.468 8.89108V0.846652H101.431L98.7052 7.54029L95.9675 0.846652H94.9423V8.89108H95.6298V1.71502L98.5726 8.89108H98.8379L101.769 1.71502V8.89108H102.468ZM4.95813 23.3578C6.4054 23.3578 7.55116 22.7668 8.37128 21.8502V18.7627H4.53601V20.2582H6.65867V21.2231C6.33304 21.5246 5.6697 21.8381 4.95813 21.8381C3.48673 21.8381 2.4254 20.7165 2.4254 19.1969C2.4254 17.6772 3.48673 16.5556 4.95813 16.5556C5.80237 16.5556 6.48982 17.038 6.8637 17.6049L8.27479 16.833C7.67176 15.8802 6.62249 15.036 4.95813 15.036C2.59425 15.036 0.664551 16.6521 0.664551 19.1969C0.664551 21.7296 2.59425 23.3578 4.95813 23.3578ZM13.5574 23.3578C15.9815 23.3578 17.7544 21.621 17.7544 19.1969C17.7544 16.7727 15.9815 15.036 13.5574 15.036C11.1211 15.036 9.3482 16.7727 9.3482 19.1969C9.3482 21.621 11.1211 23.3578 13.5574 23.3578ZM13.5573 21.8381C12.0618 21.8381 11.109 20.6924 11.109 19.1969C11.109 17.6893 12.0618 16.5556 13.5573 16.5556C15.0408 16.5556 15.9935 17.6893 15.9935 19.1969C15.9935 20.6924 15.0408 21.8381 13.5573 21.8381ZM22.7837 23.3578C25.2079 23.3578 26.9808 21.621 26.9808 19.1969C26.9808 16.7727 25.2079 15.036 22.7837 15.036C20.3475 15.036 18.5746 16.7727 18.5746 19.1969C18.5746 21.621 20.3475 23.3578 22.7837 23.3578ZM22.7837 21.8381C21.2881 21.8381 20.3354 20.6924 20.3354 19.1969C20.3354 17.6893 21.2881 16.5556 22.7837 16.5556C24.2671 16.5556 25.2199 17.6893 25.2199 19.1969C25.2199 20.6924 24.2671 21.8381 22.7837 21.8381ZM32.0945 23.3578C33.5418 23.3578 34.6875 22.7668 35.5076 21.8502V18.7627H31.6724V20.2582H33.795V21.2231C33.4694 21.5246 32.8061 21.8381 32.0945 21.8381C30.6231 21.8381 29.5618 20.7165 29.5618 19.1969C29.5618 17.6772 30.6231 16.5556 32.0945 16.5556C32.9387 16.5556 33.6262 17.038 34.0001 17.6049L35.4112 16.833C34.8081 15.8802 33.7589 15.036 32.0945 15.036C29.7306 15.036 27.8009 16.6521 27.8009 19.1969C27.8009 21.7296 29.7306 23.3578 32.0945 23.3578ZM41.9239 23.213V21.7055H38.5228V15.1686H36.7982V23.213H41.9239ZM48.7743 23.213V21.7055H44.7943V19.8723H48.6899V18.3647H44.7943V16.6762H48.7743V15.1686H43.0817V23.213H48.7743ZM54.9252 23.213V20.3426H56.9755C58.7123 20.3426 59.6771 19.1607 59.6771 17.7617C59.6771 16.3506 58.7243 15.1686 56.9755 15.1686H53.2126V23.213H54.9252ZM56.7343 18.835H54.9252V16.6762H56.7343C57.4097 16.6762 57.9283 17.0863 57.9283 17.7617C57.9283 18.425 57.4097 18.835 56.7343 18.835ZM65.8039 23.213V21.7055H62.4028V15.1686H60.6781V23.213H65.8039ZM74.4634 23.213L71.3638 15.1686H69.2171L66.1175 23.213H68.0592L68.5658 21.8502H72.0151L72.5217 23.213H74.4634ZM71.5447 20.3426H69.0361L70.2904 16.8812L71.5447 20.3426ZM79.167 23.213V19.9205L82.2425 15.1686H80.3007L78.3107 18.3888L76.3207 15.1686H74.3669L77.4544 19.9205V23.213H79.167ZM88.9603 23.3578C91.1191 23.3578 92.1805 22.2482 92.1805 20.7768C92.1805 17.7737 87.5612 18.63 87.5612 17.3636C87.5612 16.8812 87.9713 16.5676 88.6949 16.5676C89.5151 16.5676 90.3834 16.845 91.0347 17.4481L91.9875 16.1696C91.1915 15.434 90.1302 15.048 88.8517 15.048C86.9582 15.048 85.8004 16.1576 85.8004 17.4963C85.8004 20.5235 90.4317 19.5466 90.4317 20.9456C90.4317 21.416 89.9854 21.8381 89.0326 21.8381C87.9231 21.8381 87.0426 21.3316 86.4758 20.7406L85.5351 22.0793C86.2949 22.8392 87.4045 23.3578 88.9603 23.3578ZM96.9082 23.213V16.6762H99.2479V15.1686H92.8317V16.6762H95.1835V23.213H96.9082ZM104.169 23.3578C106.593 23.3578 108.366 21.621 108.366 19.1969C108.366 16.7727 106.593 15.036 104.169 15.036C101.732 15.036 99.9595 16.7727 99.9595 19.1969C99.9595 21.621 101.732 23.3578 104.169 23.3578ZM104.169 21.8381C102.673 21.8381 101.72 20.6924 101.72 19.1969C101.72 17.6893 102.673 16.5556 104.169 16.5556C105.652 16.5556 106.605 17.6893 106.605 19.1969C106.605 20.6924 105.652 21.8381 104.169 21.8381ZM116.097 23.213L114.275 20.1497C115.144 19.9446 116.048 19.1727 116.048 17.7617C116.048 16.2661 115.011 15.1686 113.335 15.1686H109.572V23.213H111.284V20.3547H112.539L114.119 23.213H116.097ZM113.093 18.8471H111.284V16.6762H113.093C113.769 16.6762 114.287 17.0863 114.287 17.7496C114.287 18.437 113.769 18.8471 113.093 18.8471ZM123.019 23.213V21.7055H119.039V19.8723H122.935V18.3647H119.039V16.6762H123.019V15.1686H117.327V23.213H123.019Z" fill="white"/>
</svg>
