<svg width="282" height="140" viewBox="0 0 282 140" fill="none" xmlns="http://www.w3.org/2000/svg">
<g filter="url(#filter0_d)">
<path d="M23.2117 59.0494C23.1385 59.1682 22.9762 59.2321 22.7248 59.2411C22.8118 58.9669 22.9741 58.903 23.2117 59.0494ZM64.4923 116.938C65.0269 117.267 65.341 117.522 65.4346 117.703C65.5396 117.931 65.752 118.185 66.0718 118.464L66.195 118.663C66.2178 118.759 66.1503 118.902 65.9926 119.091C65.8828 119.269 65.821 119.436 65.8071 119.592C65.7681 119.854 65.5807 120.026 65.2447 120.105C64.9567 120.174 64.5922 120.134 64.1512 119.985C63.7102 119.836 63.4063 119.731 63.2395 119.669C62.9996 119.726 62.5859 119.799 61.9985 119.888C61.4225 120.024 60.9014 120.072 60.4352 120.031C59.9805 120.037 59.5326 119.966 59.0916 119.817C56.4547 119.176 53.9609 118.07 51.6102 116.498C49.3075 114.915 46.908 112.925 44.4115 110.526C43.4065 109.497 42.4358 108.612 41.4992 107.871C39.1785 105.785 37.5763 104.163 36.6926 103.004C36.6218 102.919 36.0542 102.344 34.9899 101.279C33.9735 100.202 33.456 99.9443 33.4374 100.506C33.6654 101.466 33.8124 102.192 33.8784 102.684L34.3193 104.861C34.4333 105.341 34.6523 106.049 34.9763 106.986C34.8209 106.972 34.7078 106.923 34.637 106.839C34.6142 106.743 34.5971 106.671 34.5857 106.623C34.3709 106.572 34.211 106.433 34.106 106.204C34.049 105.964 33.9737 105.754 33.8801 105.573C33.8663 105.729 34.1093 106.432 34.6091 107.682C35.1202 108.98 35.4157 109.797 35.4955 110.133C35.5297 110.277 35.5228 110.355 35.4748 110.367C35.3788 110.389 35.1196 110.045 34.6973 109.334C34.5329 109.069 34.3697 108.702 34.2077 108.234C34.0457 107.765 33.8585 107.404 33.6461 107.15C33.4223 106.848 33.138 106.612 32.793 106.44C32.658 106.726 32.6247 107.012 32.6931 107.3C32.7729 107.636 33.0251 108.058 33.4499 108.566C33.8975 109.169 34.1612 109.639 34.241 109.975C34.6105 111.104 35.2324 112.655 36.1065 114.628C36.2481 114.797 36.4524 115.23 36.7194 115.927C36.9864 116.625 37.2033 117.004 37.37 117.066C37.457 116.792 37.3008 116.347 36.9012 115.732C36.5382 115.058 36.4185 114.554 36.5421 114.22C36.9075 114.691 37.266 115.24 37.6176 115.866C38.0171 116.481 38.2934 116.897 38.4464 117.115C38.8208 117.837 39.1256 118.373 39.3608 118.723C39.6967 118.643 39.8077 118.363 39.6938 117.883C39.5456 117.259 39.0263 116.14 38.136 114.526C37.2342 112.864 36.7731 111.884 36.7527 111.584C37.3467 111.95 37.7955 112.452 38.0991 113.09C38.4393 113.668 38.7827 114.474 39.1295 115.507C39.1637 115.651 39.3143 116.072 39.5813 116.769C39.8483 117.466 40.1644 118.05 40.5298 118.521C40.4542 118.843 40.4392 119.1 40.4848 119.292C40.5418 119.532 40.7656 119.834 41.1562 120.198C41.5581 120.609 41.751 120.995 41.7348 121.353C41.6982 121.413 41.5599 121.471 41.3199 121.528C41.1393 121.622 41.0478 121.77 41.0454 121.973C41.0748 122.524 41.0208 123.044 40.8834 123.533C40.7574 124.07 40.5321 124.402 40.2075 124.53C39.9675 124.587 39.6898 124.805 39.3742 125.185C39.118 125.6 38.9179 125.825 38.7739 125.86C38.5819 125.905 38.374 125.777 38.1502 125.475C38.0566 125.295 37.9561 125.192 37.8487 125.167C37.7413 125.141 37.5619 125.133 37.3105 125.142C37.1551 125.128 36.9896 124.965 36.8138 124.652C36.6494 124.387 36.4781 124.199 36.2999 124.089C36.1697 123.968 36.0314 124.026 35.885 124.264C35.7752 124.442 35.6963 124.537 35.6483 124.548C35.5523 124.571 35.3558 124.491 35.0588 124.308C34.8212 124.162 34.6305 124.105 34.4865 124.14C34.1871 124.16 33.9426 124.091 33.753 123.934C33.6114 123.764 33.447 123.499 33.2598 123.138C30.0986 116.232 27.2908 108.786 24.8364 100.8C24.5971 99.7918 24.3907 99.0295 24.2173 98.5129L23.6153 96.2981C23.4899 95.7701 23.3612 95.0147 23.2292 94.032C22.8866 93.657 22.2918 92.8602 21.4446 91.6416L21.3627 90.9766C21.3057 90.7366 21.1881 90.5617 21.0099 90.4519C21.0603 90.2371 21.1632 90.1366 21.3186 90.1504C21.474 90.1642 21.5757 90.1654 21.6237 90.154C22.1541 89.8252 22.3338 89.3008 22.1628 88.5809C22.083 88.2449 21.9792 87.9146 21.8514 87.59C21.7123 87.2174 21.6028 86.8631 21.523 86.5271C21.4318 86.1432 21.4114 85.8438 21.4618 85.629C21.3592 85.197 21.5011 84.8337 21.8875 84.5391C21.7897 83.7003 21.5527 82.489 21.1766 80.905C21.1334 80.5097 21.0206 79.928 20.8382 79.16C20.7836 78.7166 20.648 78.0389 20.4314 77.127C20.1693 76.023 19.9275 75.2184 19.7061 74.7133C19.2021 72.8047 18.7342 71.9017 18.3022 72.0043C17.9182 72.0955 17.6788 73.1158 17.584 75.0651C17.1862 75.3117 16.9018 75.075 16.7308 74.355C16.651 74.019 16.6192 73.6717 16.6354 73.3129C16.6516 72.9541 16.6963 72.7153 16.7695 72.5965L16.7389 72.1474C16.7161 72.0514 16.6808 72.0091 16.6328 72.0205C16.5368 72.0433 16.355 72.2386 16.0874 72.6064C15.8084 72.9262 15.6449 73.0918 15.5969 73.1032C15.6107 72.9478 15.7583 72.6085 16.0397 72.0853C16.3691 71.5507 16.5167 71.2114 16.4825 71.0674C16.4483 70.9235 16.2449 70.9211 15.8723 71.0602L15.8003 71.0773C15.6563 71.1115 15.5261 70.9903 15.4097 70.7137C15.2819 70.3892 15.1106 70.2017 14.8958 70.1513C14.8616 70.0073 14.8628 69.9056 14.8994 69.8462L14.3577 70.127L14.3406 70.055C14.2836 69.815 14.3397 69.6242 14.5089 69.4826C14.7147 69.2816 14.8827 69.2417 15.0129 69.3629L14.9067 69.236C14.9571 69.0212 14.9709 68.8658 14.9481 68.7698C14.8911 68.5298 14.7552 68.3846 14.5404 68.3342C14.3736 68.2724 14.1873 68.342 13.9815 68.543C14.1393 68.3534 14.6127 67.7846 15.4017 66.8367C16.2273 65.8293 16.4607 65.3176 16.1019 65.3014C15.7407 65.4885 14.9244 66.2148 13.653 67.4801C12.3817 68.7455 11.7745 69.4981 11.8315 69.7381C11.8543 69.8341 11.9377 69.865 12.0817 69.8308C12.3216 69.7738 12.6405 69.622 13.0383 69.3755C13.1001 69.2087 13.1916 69.0602 13.3128 68.93C13.434 68.7998 13.5552 68.6696 13.6764 68.5394C13.7196 68.9348 13.5126 69.2375 13.0554 69.4475C12.9822 69.5663 12.8907 69.7147 12.7809 69.8929C12.6711 70.0711 12.6093 70.2379 12.5955 70.3933L12.6675 70.3762C12.4731 70.6252 12.201 70.8673 11.8512 71.1025C11.5015 71.3377 11.1997 71.5615 10.9459 71.7738C10.8727 71.8926 10.8589 72.048 10.9045 72.24C10.9387 72.384 10.9432 72.5097 10.918 72.6171C10.831 72.8913 10.7269 73.0935 10.6057 73.2237C10.4365 73.3653 10.288 73.2738 10.1602 72.9492C10.2166 70.1977 11.6269 67.8092 14.391 65.7837C17.1437 63.7102 20.662 61.6578 24.9459 59.6263L26.3724 58.9072C26.3016 58.8226 26.1462 58.8088 25.9062 58.8658C25.8102 58.8886 25.6239 58.9582 25.3473 59.0746C25.1073 59.1316 25.0125 59.0527 25.0629 58.8379C25.4013 58.5547 25.8345 58.3505 26.3625 58.2251C26.6505 58.1567 27.0459 58.1135 27.5486 58.0955C28.088 58.0181 28.5314 57.9635 28.8788 57.9317C29.5508 57.7721 30.1963 57.8216 30.8155 58.0802C31.4347 58.3388 31.9876 58.6385 32.4741 58.9793C33.0087 59.3087 33.3708 59.5523 33.5604 59.7101C33.9282 59.9777 34.4388 60.3128 35.0921 60.7154C35.7935 61.1066 36.3155 61.4897 36.658 61.8647C38.0854 63.6046 39.1125 65.7946 39.7394 68.4345C40.127 70.0664 40.3283 71.768 40.3432 73.5391C40.279 73.9093 40.201 74.4349 40.1092 75.1158C40.0654 75.7854 39.8674 76.3395 39.5152 76.7781C39.5824 79.196 39.5311 81.0082 39.3613 82.2148C39.6265 82.0504 39.7969 81.8071 39.8725 81.4849C39.9847 81.1033 40.0627 80.5777 40.1065 79.9081C40.2373 78.9644 40.3576 78.4034 40.4674 78.2252L40.399 77.9372C40.3762 77.8412 40.4311 77.7521 40.5637 77.6699C40.7443 77.5763 40.8655 77.4462 40.9273 77.2794C41.55 79.2611 40.5873 82.2532 38.0392 86.2556C37.8448 86.5046 37.5898 86.8187 37.2742 87.1978C37.0066 87.5656 36.811 87.9163 36.6874 88.2499C36.637 88.4647 36.3625 88.9102 35.8639 89.5863C35.1595 90.4635 34.918 91.1547 35.1394 91.6598C35.731 92.2292 37.1334 93.5441 39.3467 95.6045C40.9456 96.9994 42.2772 98.2297 43.3416 99.2953C44.3945 100.313 45.3206 101.437 46.1197 102.667L46.171 102.883C46.2394 103.171 46.4404 103.376 46.774 103.5C47.1442 103.564 47.383 103.609 47.4904 103.634L49.8338 105.816C49.9844 106.236 50.2196 106.586 50.5394 106.865C50.8592 107.144 51.227 107.412 51.6427 107.668C52.0951 107.865 52.4698 108.054 52.7668 108.237C56.3372 110.888 59.5129 112.517 62.2938 113.124C62.5086 113.175 63.0158 113.283 63.8156 113.448C64.6634 113.601 65.1272 113.846 65.2069 114.182C65.2525 114.374 65.1004 114.588 64.7507 114.823C64.7255 114.93 64.73 115.056 64.7641 115.2C64.8577 115.38 64.9159 115.519 64.9387 115.615L64.99 115.831L65.0755 116.191C65.1211 116.383 65.1016 116.514 65.017 116.585C64.9438 116.704 64.7689 116.821 64.4923 116.938ZM22.0561 59.6281C22.0195 59.6874 21.9772 59.7228 21.9292 59.7342C21.8698 59.6976 21.8161 59.685 21.7681 59.6964C21.7567 59.6484 21.7807 59.6427 21.8401 59.6793C21.9361 59.6566 22.0081 59.6395 22.0561 59.6281ZM18.6902 64.9909C18.8366 64.7533 18.8984 64.5865 18.8756 64.4905C18.8756 64.4905 18.8516 64.4962 18.8036 64.5076C18.7922 64.4596 18.7865 64.4356 18.7865 64.4356C18.6425 64.4698 18.407 64.6525 18.08 64.9837C17.7896 65.2555 17.6192 65.4988 17.5688 65.7136C17.2556 65.8894 16.7765 66.4341 16.1315 67.3479C15.4751 68.2136 15.4235 68.5301 15.9767 68.2973C16.1345 68.1078 16.4318 67.7583 16.8686 67.2489C17.3054 66.7395 17.5388 66.2277 17.5688 65.7136L17.7848 65.6623C18.0728 65.5939 18.3746 65.3701 18.6902 64.9909ZM26.0339 63.2469C25.9379 63.2697 25.8293 63.3462 25.7081 63.4764C25.6235 63.5472 25.5206 63.6477 25.3994 63.7778L25.9205 63.7302C26.0645 63.696 26.1731 63.6195 26.2463 63.5007C26.3675 63.3705 26.4464 63.2757 26.483 63.2163L26.0339 63.2469ZM31.9518 84.9631C33.2964 83.579 33.9933 81.8163 34.0425 79.675C34.2369 79.426 34.1667 78.2764 33.832 76.2263C33.4972 74.1762 33.1132 72.2391 32.6801 70.4152C32.3495 69.0232 32.1362 68.3387 32.0402 68.3615C31.9442 68.3843 31.9292 68.6414 31.9952 69.1327L31.17 67.5794C30.5514 66.2558 29.935 65.2614 29.3206 64.596C28.6948 63.8826 27.9019 63.6399 26.942 63.8679C26.798 63.9021 26.4974 64.0242 26.0402 64.2341L26.7224 64.2242L26.7395 64.2962C26.7737 64.4402 26.6948 64.535 26.5028 64.5806C26.4068 64.6034 26.2388 64.6433 25.9988 64.7003C25.7954 64.6979 25.6514 64.7321 25.5668 64.8029C25.4708 64.8257 25.4456 64.9331 25.4912 65.1251C25.6694 65.2349 25.8785 65.2613 26.1185 65.2043C26.2625 65.1701 26.4968 65.0891 26.8214 64.9613C27.194 64.8221 27.427 64.8428 27.5206 65.0234C26.4533 65.2262 25.8338 65.5001 25.6622 65.8451C25.5272 66.1307 25.5281 66.5614 25.6649 67.1374C25.8383 67.654 25.9592 68.0563 26.0276 68.3443L26.7385 71.9784C27.543 75.793 27.9995 78.6762 28.1081 80.628C28.1057 80.8313 28.1558 81.149 28.2584 81.581C28.4294 82.301 28.6723 83.0039 28.9873 83.6896C29.3113 84.6268 29.5303 85.3354 29.6443 85.8154L29.7298 86.1754C29.821 86.5594 29.9865 86.7229 30.2265 86.6659C30.4185 86.6203 30.6723 86.4079 30.9879 86.0287C31.3035 85.6495 31.5219 85.3948 31.6431 85.2646L31.5027 84.9937C31.4457 84.7537 31.5258 84.5573 31.743 84.4043C31.9074 84.6695 31.977 84.8557 31.9518 84.9631ZM34.0238 64.5438C33.9986 64.6512 34.0031 64.7769 34.0373 64.9209C34.0715 65.0649 34.2827 65.4204 34.6709 65.9874L34.6745 65.6823C34.6289 65.4903 34.5296 65.2857 34.3766 65.0685C34.2236 64.8513 34.106 64.6764 34.0238 64.5438ZM33.482 64.8246C33.3974 64.8954 33.3962 64.9971 33.4784 65.1297C33.5492 65.2143 33.6029 65.2269 33.6395 65.1675C33.6281 65.1195 33.611 65.0475 33.5882 64.9515C33.6134 64.8441 33.578 64.8018 33.482 64.8246ZM15.0641 69.5789L15.047 69.5069L15.0641 69.5789ZM12.717 73.7871C12.4224 73.4007 12.4902 72.7254 12.9204 71.7613C13.3506 70.7971 13.8297 70.2523 14.3577 70.127C14.2113 70.3645 14.2203 70.6159 14.3847 70.8811C14.0235 71.0683 13.7514 71.3104 13.5684 71.6074C13.3854 71.9044 13.2435 72.2677 13.1427 72.6972C12.9825 73.0902 12.8406 73.4535 12.717 73.7871ZM32.5649 68.0087C32.4869 68.5343 32.5541 68.924 32.7665 69.1777C32.8283 69.011 32.8364 68.8316 32.7908 68.6396C32.7338 68.3996 32.6585 68.1893 32.5649 68.0087ZM33.0995 68.3381C33.1817 68.4707 33.2354 68.4833 33.2606 68.3759C33.2744 68.2205 33.2333 68.1542 33.1373 68.177L33.0995 68.3381ZM15.3899 75.4341C15.3125 74.8947 15.2876 74.4696 15.3152 74.1588C15.3314 73.8 15.431 73.4721 15.614 73.1752L15.5969 73.1032C15.7385 73.2724 15.8207 73.405 15.8435 73.5009C15.8891 73.6929 15.8135 74.0151 15.6167 74.4675C15.4565 74.8605 15.3809 75.1827 15.3899 75.4341ZM13.7861 74.4459C13.7267 74.4093 13.7153 74.3613 13.7519 74.3019C13.8251 74.1831 13.8548 74.2014 13.841 74.3568L13.7861 74.4459ZM35.6049 75.0447C35.1963 74.1783 34.861 73.1931 34.5988 72.0892C34.2292 70.96 33.9223 70.0948 33.6782 69.4936C33.7669 70.081 33.9481 70.9507 34.2217 72.1027C34.5865 73.6386 34.8462 74.946 35.001 76.0247C35.1924 77.0441 35.2638 78.0919 35.2152 79.1683C35.4942 78.8485 35.6361 78.4852 35.6409 78.0785C35.6937 77.6603 35.694 77.1278 35.6418 76.481C35.5896 75.8342 35.5773 75.3555 35.6049 75.0447ZM36.6192 75.7926C36.5484 75.708 36.441 75.6828 36.297 75.717C36.153 75.7511 36.0786 75.9716 36.0738 76.3784C36.069 76.7852 36.1008 77.1326 36.1691 77.4206C36.2489 77.7566 36.2486 78.2891 36.1682 79.018C36.1244 79.6876 36.1664 80.1847 36.2942 80.5093C36.4154 80.3791 36.5195 80.1769 36.6065 79.9027C36.6821 79.5805 36.8342 79.3669 37.0628 79.2619L37.097 79.4059C37.1312 79.5499 37.1894 79.6882 37.2716 79.8208C37.3904 79.894 37.4669 80.0026 37.5011 80.1466C37.5695 80.4346 37.6561 80.6929 37.7611 80.9215C37.8547 81.1021 37.9426 81.2587 38.0248 81.3913C37.9492 81.7134 37.9045 81.9522 37.8907 82.1076C37.8769 82.263 37.9054 82.383 37.9762 82.4676C38.2324 82.0518 38.4418 81.5458 38.6044 80.9494C38.8036 80.2936 38.8519 79.7497 38.7493 79.3178C38.6923 79.0778 38.569 78.8789 38.3794 78.7211C38.32 78.6845 38.2847 78.6422 38.2733 78.5942C38.2619 78.5462 38.2322 78.5279 38.1842 78.5393C37.9808 78.5369 37.8026 78.4271 37.6496 78.2099C37.4966 77.9927 37.3481 77.9012 37.2041 77.9354C37.0511 77.7182 36.9233 77.3936 36.8207 76.9616C36.7547 76.4702 36.6875 76.0805 36.6192 75.7926ZM37.5749 76.9346C37.6115 76.8752 37.6001 76.8272 37.5407 76.7906C37.5179 76.6946 37.4939 76.7003 37.4687 76.8077L37.5749 76.9346ZM20.7986 82.516C20.5592 81.508 20.5937 81.1195 20.9021 81.3505C20.8997 81.5539 20.9921 81.8362 21.1792 82.1974C21.3664 82.5586 21.4942 82.8832 21.5626 83.1712C21.6766 83.6512 21.577 83.979 21.2638 84.1548L20.7986 82.516ZM38.4136 78.8651C38.4706 79.1051 38.4613 79.3861 38.3857 79.7083C38.3581 80.0191 38.2804 80.0122 38.1526 79.6876C38.155 79.4842 38.1871 79.2991 38.2489 79.1324C38.3107 78.9656 38.3542 78.8285 38.3794 78.7211L38.4136 78.8651ZM35.1269 83.6006C35.6393 82.7691 35.7974 82.047 35.6012 81.4344C35.5784 81.3384 35.5682 81.1887 35.5706 80.9853C35.621 80.7706 35.5697 80.5546 35.4167 80.3374C35.3297 80.6116 35.126 81.1416 34.8056 81.9276C34.4738 82.6656 34.3421 83.1785 34.4105 83.4665C34.4675 83.7065 34.7063 83.7512 35.1269 83.6006ZM36.6523 83.6187C36.7963 83.5845 36.8752 83.4897 36.889 83.3343C36.9394 83.1195 36.9601 82.8864 36.9511 82.635C36.8779 82.7538 36.7624 82.908 36.6047 83.0976C36.4469 83.2872 36.4148 83.4723 36.5083 83.6529L36.6523 83.6187ZM38.0815 84.192C38.1913 84.0138 38.2291 83.8527 38.1949 83.7087C38.0875 83.6835 37.9789 83.76 37.8691 83.9382C37.8073 84.105 37.8781 84.1896 38.0815 84.192ZM37.7656 85.1036C37.7542 85.0556 37.7668 85.0019 37.8034 84.9425C37.84 84.8831 37.8286 84.8351 37.7692 84.7985C37.696 84.9173 37.6948 85.019 37.7656 85.1036ZM41.5561 98.5024C41.4877 98.2144 41.2753 97.9606 40.9189 97.741C40.5625 97.5214 40.3546 97.3933 40.2952 97.3567C40.261 97.2127 40.1845 97.1041 40.0657 97.0309C39.9355 96.9097 39.8464 96.8548 39.7984 96.8662C39.7024 96.889 39.6658 96.9484 39.6886 97.0444C39.7228 97.1884 39.8884 97.3519 40.1854 97.5349C40.48 97.9213 40.6981 98.1991 40.8397 98.3683C41.0179 98.4781 41.2681 98.5708 41.5902 98.6464L41.5561 98.5024ZM32.2278 105.661C32.2644 105.602 32.2713 105.524 32.2485 105.428C32.2257 105.332 32.1846 105.266 32.1252 105.229C32.0886 105.289 32.0817 105.367 32.1045 105.463C32.1753 105.547 32.2164 105.613 32.2278 105.661ZM74.0998 112.45C72.4336 112.694 70.826 112.543 69.2769 111.998C67.7757 111.442 66.4885 110.506 65.4151 109.189C63.9944 107.904 62.7315 106.429 61.6263 104.764C60.5212 103.1 59.6183 101.54 58.9175 100.084C58.2647 98.6161 57.3039 96.3851 56.035 93.3906C54.4103 89.1115 53.1693 85.2737 52.312 81.8772C52.2574 81.4338 52.1686 80.8465 52.0456 80.1151C51.9593 79.3243 51.8294 78.6706 51.656 78.1541L51.5705 77.7941C51.4451 77.2661 51.4694 76.7279 51.6434 76.1795C51.6368 75.7248 51.5252 75.0414 51.3087 74.1294C51.2631 73.9374 51.1959 73.5477 51.1071 72.9604C51.0069 72.325 50.9718 71.7502 51.0018 71.236C51.3 69.2891 51.4722 67.8791 51.5184 67.0062C51.5208 66.8028 51.6135 66.5526 51.7965 66.2556C52.0275 65.9472 52.1739 65.7096 52.2357 65.5428C52.3455 65.3647 52.269 65.2561 52.0062 65.2171C51.5743 65.3196 51.3355 65.2749 51.2899 65.0829C51.2443 64.891 51.3736 64.5814 51.6778 64.1542C52.03 63.7156 52.2484 63.4609 52.333 63.3901C52.891 62.7506 53.1768 62.3531 53.1906 62.1977C53.2435 61.7795 53.2357 61.4264 53.1673 61.1384C53.1217 60.9464 53.0167 60.7178 52.8523 60.4526C53.0995 59.7855 53.5123 59.2818 54.0907 58.9416C54.717 58.59 55.4862 58.306 56.3982 58.0894C56.7342 58.0096 57.1479 57.9367 57.6392 57.8707C58.1672 57.7453 58.7135 57.5902 59.2781 57.4054C60.9694 57.0545 62.7622 57.2372 64.6563 57.9536C65.3552 58.5482 65.9801 58.8308 66.5309 58.8014C69.046 60.638 71.2008 63.0925 72.9953 66.165C74.8377 69.2261 76.2905 72.3544 77.3537 75.5499C78.4648 78.734 79.6464 82.5352 80.8985 86.9534C81.0263 87.278 81.1699 87.7763 81.3295 88.4483C81.5461 89.3603 81.7864 90.799 82.0503 92.7645C82.3143 94.7301 82.5546 96.1688 82.7712 97.0808C83.2817 99.4441 83.4164 101.719 83.1751 103.906C82.9819 106.082 82.2301 107.933 80.9198 109.462C80.1968 110.901 78.9473 111.831 77.1714 112.253C76.0674 112.515 75.0435 112.581 74.0998 112.45ZM75.3346 105.16C75.3365 101.965 75.2942 99.972 75.2078 99.1812C75.053 98.1024 74.9129 97.2991 74.7876 96.7711C74.742 96.5791 74.6361 95.9197 74.4699 94.793C74.3037 93.6662 74.2746 92.5829 74.3826 91.5432C74.3484 91.3992 74.239 91.0449 74.0542 90.4803C73.8694 89.9157 73.7725 89.5077 73.7635 89.2564C73.7545 89.005 73.8733 89.0782 74.1199 89.476C74.2729 89.6931 74.395 89.9937 74.4862 90.3777C74.6139 90.7023 74.7966 90.9378 75.0342 91.0842C75.2856 91.0752 75.3966 90.7953 75.3672 90.2445C75.3744 89.6344 75.2754 88.8973 75.0703 88.0333C74.8081 86.9294 74.4556 85.8722 74.0129 84.8618C73.5587 83.8035 73.2002 83.2548 72.9374 83.2158C72.2733 81.7002 71.6604 80.4007 71.0988 79.3171C70.5853 78.2221 70.2244 77.8768 70.0162 78.2812C69.9226 78.1006 69.7354 77.7394 69.4546 77.1976C69.1624 76.6079 68.9594 76.073 68.8454 75.593L68.8112 75.449C68.7542 75.209 68.6069 75.0158 68.3693 74.8694C68.1317 74.723 67.9421 74.5652 67.8005 74.396C67.7483 73.7493 67.5579 73.1607 67.2291 72.6303C66.9369 72.0405 66.4905 71.3352 65.89 70.5144C65.1592 69.5725 64.6192 68.6866 64.2701 67.8568C63.7151 67.228 63.1484 67.0837 62.57 67.4239C61.6905 66.9229 60.6714 66.5818 59.5129 66.4006C57.8683 68.8701 57.7185 72.9367 59.0636 78.6006C59.8387 81.8644 60.9588 85.2999 62.4239 88.907C63.9256 92.4547 65.391 95.5293 66.8201 98.1308C66.9617 98.3 67.4903 99.1379 68.4058 100.644C69.358 102.092 70.4142 103.337 71.5746 104.379C72.7349 105.422 73.7231 105.847 74.539 105.653C74.731 105.607 74.9962 105.443 75.3346 105.16ZM100.265 107.225C98.1781 107.619 96.3373 107.448 94.7426 106.711C93.2757 106.299 91.8774 105.642 90.5479 104.741C89.2549 103.781 88.1495 102.649 87.2316 101.346C84.4525 97.5435 82.4474 93.0505 81.2164 87.8667C80.1563 83.4029 79.7352 78.5337 79.953 73.2593L80.2816 68.2375C80.4346 64.3983 80.6969 61.4458 81.0683 59.3801C81.1553 59.1059 81.2687 58.6226 81.4085 57.9302C81.5849 57.1785 81.8252 56.589 82.1294 56.1618C82.4336 55.7346 82.8371 55.512 83.3398 55.494C83.5432 55.4964 83.8129 55.4578 84.1489 55.378C84.4849 55.2982 84.7843 55.2778 85.0471 55.3168C85.3099 55.3558 85.5178 55.4839 85.6707 55.7011C85.6797 55.9525 85.563 56.2083 85.3207 56.4687C85.0669 56.6811 84.9388 56.889 84.9364 57.0924C85.3293 57.2526 85.6218 57.3099 85.8138 57.2643C86.0538 57.2073 86.1477 56.8554 86.0955 56.2087C86.5071 55.8067 86.9769 55.543 87.5049 55.4176C88.1769 55.258 88.8887 55.2664 89.6405 55.4428C90.3923 55.6192 91.0411 55.8961 91.5871 56.2735C91.6327 56.4655 91.4635 56.6071 91.0795 56.6983L90.0545 56.8657C89.4305 57.0139 89.0087 57.2662 88.7891 57.6225C88.6427 57.8601 88.6403 58.0635 88.7819 58.2327C88.9601 58.3425 89.3531 58.5027 89.9608 58.7133C90.5686 58.9239 90.8941 59.2269 90.9373 59.6223C91.1497 59.8761 91.2673 60.051 91.2901 60.147C91.3585 60.435 91.1767 60.6303 90.7447 60.7329C90.4567 60.8012 90.235 60.8285 90.0796 60.8147L90.0931 61.1918C90.1501 61.4318 90.2254 61.6421 90.319 61.8227C90.4012 61.9553 90.448 62.0456 90.4594 62.0936C90.4822 62.1896 90.4696 62.2433 90.4216 62.2547C90.2776 62.2889 89.8834 62.2304 89.239 62.0792C88.8802 62.063 88.6081 62.3051 88.4227 62.8054C88.2373 63.3058 88.0873 63.8485 87.9727 64.4335C87.9061 65.0071 87.8533 65.4252 87.8143 65.688C87.0511 69.5201 86.5909 73.0266 86.4336 76.2077C86.3916 77.7389 86.5914 80.0746 87.0329 83.2149C87.4109 85.6604 87.6109 87.4636 87.6331 88.6246C89.2536 92.2455 90.758 95.0573 92.1463 97.06C92.6989 97.8922 93.391 98.5645 94.2225 99.0769C95.0907 99.5299 95.9328 99.6595 96.7487 99.4657C97.3727 99.3175 97.9088 99.0127 98.357 98.5513C98.8922 97.8158 99.2903 97.0367 99.5513 96.2141C99.8123 95.3916 100.126 94.1508 100.493 92.4919C100.598 91.6555 100.801 90.6947 101.101 89.6093C101.451 89.3741 101.722 89.2337 101.914 89.1881C102.298 89.097 102.547 89.2913 102.661 89.7713C102.763 90.2033 102.723 91.1003 102.539 92.4622C102.537 92.6656 102.502 93.0541 102.436 93.6277C102.358 94.1533 102.335 94.5897 102.366 94.9371C102.446 95.2731 102.551 95.5017 102.681 95.6229C102.791 95.4447 103.045 95.2323 103.443 94.9857C103.829 94.6912 104.096 94.4251 104.242 94.1875C104.895 94.5901 105.366 94.7572 105.654 94.6888C105.798 94.6546 105.961 94.489 106.144 94.192C106.181 94.1326 106.281 93.8047 106.443 93.2084C106.606 92.612 106.767 92.1173 106.927 91.7243C107.076 91.2833 107.191 91.2308 107.27 91.5668C107.22 91.7816 107.206 91.937 107.229 92.033C107.32 92.417 107.761 92.5658 108.552 92.4794C109.098 92.8568 109.428 93.2855 109.542 93.7655C109.644 94.1975 109.553 94.8784 109.266 95.8084L108.943 97.3302C108.723 98.7516 108.464 99.9032 108.167 100.785C107.917 101.656 107.506 102.489 106.934 103.283C106.085 105.26 104.581 106.504 102.421 107.017C101.653 107.2 100.934 107.269 100.265 107.225ZM85.8786 57.8574C85.737 57.6882 85.5633 57.7041 85.3575 57.9051C85.3551 58.1085 85.4259 58.1931 85.5699 58.1589C85.7139 58.1247 85.8168 58.0242 85.8786 57.8574ZM118.531 101.518C118.323 101.923 118.147 102.142 118.003 102.176C117.811 102.222 117.652 101.98 117.527 101.452C117.413 100.972 117.327 100.612 117.27 100.373C117.177 100.192 117.06 99.9153 116.921 99.5427C116.771 99.1221 116.553 98.8444 116.267 98.7094C116.018 98.515 115.678 98.4691 115.246 98.5716C114.865 97.3945 114.421 95.9533 113.915 94.2482C113.456 92.5316 113.089 91.1991 112.813 90.2505C112.505 88.9546 112.253 88.0003 112.057 87.3877C111.183 85.415 110.396 83.7005 109.695 82.2444C108.994 80.7882 108.398 79.5607 107.907 78.5617C104.077 70.5471 101.32 64.382 99.6361 60.0664C99.221 58.7452 98.8181 57.9028 98.4275 57.5392C97.9889 57.1871 97.7412 56.891 97.6842 56.651C97.593 56.267 97.5765 55.13 97.6347 53.2401C97.8177 52.9431 98.1012 52.749 98.4852 52.6578C98.9172 52.5552 99.2235 52.4571 99.4041 52.3636C99.5619 52.174 99.7745 51.8953 100.042 51.5275C100.346 51.1003 100.649 50.7748 100.951 50.551C101.155 50.5534 101.358 50.5558 101.561 50.5582C101.765 50.5607 101.974 50.5871 102.189 50.6375C102.321 50.5553 102.406 50.4845 102.442 50.4251C102.516 50.3063 102.57 50.2172 102.607 50.1578C102.692 50.087 102.806 50.0345 102.95 50.0003C103.382 49.8977 103.656 49.9847 103.773 50.2613C104.846 51.5783 105.519 52.8127 105.793 53.9647C105.941 54.5887 106.029 55.2777 106.056 56.0319C106.087 56.3793 106.131 56.7747 106.185 57.2181C106.24 57.6614 106.317 58.2008 106.417 58.8362C106.557 59.2088 106.946 59.1416 107.586 58.6346C108.275 58.1163 109.176 57.3192 110.289 56.2435C111.439 55.1083 112.153 54.4826 112.429 54.3662C112.756 54.035 113.265 53.5085 113.956 52.7867C114.694 52.0536 115.395 51.4815 116.058 51.0705C116.312 50.8581 116.699 50.4619 117.221 49.8817C117.731 49.2535 118.19 48.8401 118.599 48.6416C118.789 48.7994 118.98 48.8555 119.172 48.8099C119.268 48.7871 119.388 48.7586 119.532 48.7244C119.724 48.6788 119.874 48.6686 119.981 48.6938L119.885 49.2491C119.907 49.3451 119.967 49.3816 120.063 49.3589C120.195 49.2767 120.431 49.094 120.769 48.8108C121.156 48.5162 121.493 48.3347 121.781 48.2663L121.997 48.215C122.333 48.1352 122.577 48.2039 122.73 48.4211C122.931 48.6269 123.152 48.7013 123.392 48.6443C123.584 48.5987 123.77 48.5291 123.951 48.4355C124.12 48.2939 124.3 48.2004 124.492 48.1548C124.732 48.0978 124.964 48.2202 125.188 48.522C125.344 48.5358 125.53 48.4662 125.747 48.3132C126.001 48.1008 126.224 47.9718 126.416 47.9262C126.704 47.8578 126.9 47.9379 127.005 48.1665L126.933 48.1836C126.693 48.2406 126.482 48.4176 126.299 48.7146C126.104 48.9636 126.06 49.2023 126.165 49.4309C125.854 49.4033 125.625 49.5083 125.479 49.7459C125.321 49.9355 125.125 50.2862 124.892 50.798C124.695 51.2503 124.464 51.5587 124.199 51.7231C123.909 51.9949 123.709 52.2199 123.599 52.3981C123.537 52.5649 123.468 52.8094 123.393 53.1316C123.317 53.4537 123.267 53.6685 123.241 53.7759C122.647 54.4749 121.956 55.1967 121.17 55.9412C119.789 57.3848 118.94 58.2961 118.625 58.6753C118.078 59.3629 117.038 60.3198 115.503 61.5461C114.635 62.1581 114.013 62.6354 113.638 62.978C113.48 63.1675 113.232 63.4039 112.893 63.6871C112.555 63.9703 112.409 64.2079 112.454 64.3999C112.5 64.5919 112.755 64.8103 113.218 65.0551C113.346 65.3797 113.737 65.7433 114.39 66.1458C115.021 66.4524 115.435 66.8103 115.634 67.2195C115.988 67.6425 116.33 68.0175 116.662 68.3445C116.993 68.6715 117.265 68.9619 117.477 69.2157C117.904 69.5199 118.265 69.8652 118.56 70.2516C119.08 70.7363 119.946 71.3927 121.157 72.2207C122.486 73.1219 123.423 73.8629 123.967 74.4437C124.001 74.5877 123.963 74.7488 123.853 74.9269C123.743 75.1051 123.73 75.2605 123.812 75.3931C124.033 75.8983 124.359 76.2013 124.788 76.3021C125.302 76.3321 125.832 76.5358 126.378 76.9132C126.972 77.2792 127.442 77.548 127.787 77.7196C128.822 78.2344 129.814 78.7846 130.765 79.3702C132.346 80.2624 133.678 80.9602 134.761 81.4636C135.844 81.967 136.988 82.3036 138.195 82.4734C138.661 82.5148 139.038 82.5013 139.326 82.4329C139.758 82.3303 140.217 82.0186 140.701 81.4978C141.175 80.9291 141.55 80.5865 141.826 80.4701C142.025 80.8793 141.906 81.3386 141.469 81.8479C141.08 82.3459 140.651 82.6759 140.183 82.8379C139.799 82.9291 139.611 83.1004 139.62 83.3518C139.917 83.5348 140.162 83.6035 140.354 83.5579C140.546 83.5123 140.842 83.2645 141.242 82.8145C141.642 82.3645 142.004 82.1773 142.326 82.2529C142.433 82.2781 142.583 82.2679 142.775 82.2223L143.478 81.9794C143.862 81.8882 144.178 81.9398 144.427 82.1342C144.512 82.0634 144.62 81.9869 144.753 81.9047C144.922 81.7631 145.079 81.6752 145.223 81.641C145.511 81.5726 145.689 81.6824 145.757 81.9704C144.658 85.8822 142.717 88.1687 139.933 88.8299C137.965 89.2972 135.7 89.0491 133.139 88.0855C130.614 87.0625 128.206 85.7836 125.915 84.2488C123.672 82.7027 120.978 80.7563 117.835 78.4097L114.597 75.9843L116.254 80.0782L117.736 83.7573C117.887 84.1779 118.245 84.7266 118.811 85.4034C119.378 86.0802 119.712 86.6346 119.815 87.0665C120.433 88.3901 120.894 89.9032 121.197 91.606C121.348 92.0266 121.778 93.0906 122.488 94.7982C123.234 96.4463 123.747 98.0738 124.027 99.6805C123.833 99.9295 123.562 100.07 123.215 100.102C122.904 100.074 122.682 100.101 122.55 100.184C122.513 100.243 122.447 100.284 122.351 100.307C122.207 100.341 122.027 100.333 121.813 100.283C121.598 100.232 121.4 100.254 121.219 100.347C121.098 100.478 120.856 100.738 120.492 101.129C120.177 101.508 119.827 101.743 119.443 101.834C119.107 101.914 118.803 101.809 118.531 101.518ZM118.599 48.6416C118.59 48.3902 118.743 48.1766 119.056 48.0008C119.104 47.9894 119.109 48.0134 119.073 48.0728C119.073 48.0728 119.127 48.0854 119.234 48.1106C119.197 48.17 119.124 48.2888 119.014 48.467C118.941 48.5858 118.803 48.644 118.599 48.6416ZM126.669 49.3112C126.657 49.2632 126.671 49.1079 126.71 48.8451C126.797 48.5709 126.907 48.3927 127.039 48.3105C127.161 48.1803 127.334 48.1644 127.56 48.2628C127.51 48.4776 127.382 48.6855 127.176 48.8865C126.959 49.0395 126.79 49.1811 126.669 49.3112ZM138.222 83.2275C138.21 83.1795 138.145 83.1189 138.027 83.0457C137.894 83.1279 137.857 83.1873 137.917 83.2239C138.024 83.2491 138.126 83.2503 138.222 83.2275ZM165.19 78.7245C165.179 78.6765 165.246 78.5337 165.392 78.2961C165.481 78.8835 165.459 79.7507 165.326 80.8979C165.17 81.949 165.125 82.7203 165.191 83.2117C165.019 84.6216 164.753 85.851 164.393 86.8997C164.034 87.9485 163.485 88.8395 162.746 89.5726C161.015 91.2513 158.887 92.6442 156.361 93.7511C155.989 93.8903 155.67 94.0421 155.404 94.2064C155.139 94.3708 154.916 94.4998 154.736 94.5934C154.048 95.1118 153.415 95.4394 152.84 95.5762C152.396 95.6308 151.813 95.8452 151.091 96.2196C150.284 96.6648 149.605 96.9021 149.054 96.9315C148.57 96.3873 148.155 96.0294 147.81 95.8578C147.514 95.6748 147.126 95.5386 146.649 95.4492C146.182 95.4078 145.777 95.3013 145.432 95.1297C145.098 95.0061 144.677 94.7259 144.167 94.2891C144.618 93.6243 145.181 93.1104 145.855 92.7475C146.577 92.3731 147.287 92.0524 147.984 91.7854C148.681 91.5185 149.144 91.3325 149.373 91.2275C150.502 90.8579 152.091 90.075 154.139 88.8786L155.405 88.1218C155.012 87.9616 154.695 87.91 154.455 87.967C154.215 88.024 154.255 88.192 154.575 88.471C154.419 88.4571 154.174 88.4901 153.838 88.5699C153.358 88.6839 152.871 88.8756 152.377 89.145C152.233 89.1792 152.004 89.2842 151.691 89.46C151.367 89.5878 151.084 89.6802 150.844 89.7372L149.332 90.0962C148.66 90.2558 148.162 90.3995 147.838 90.5273L147.748 90.4724C148.089 89.9858 148.92 89.5349 150.241 89.1198C150.987 88.8414 151.492 88.62 151.757 88.4556C151.842 88.3848 151.861 88.2534 151.815 88.0614C151.818 87.858 151.861 87.7209 151.946 87.6501C152.067 87.52 152.225 87.3304 152.419 87.0814C152.614 86.8324 152.825 86.6554 153.054 86.5504C153.861 86.1052 154.597 85.5755 155.262 84.9611C155.928 84.3467 156.721 83.5245 157.643 82.4943C158.407 81.6538 158.68 80.7775 158.464 79.8655C158.418 79.6735 158.302 79.3969 158.114 79.0358C157.715 77.3558 157.171 75.8118 156.482 74.4036C156.4 74.271 156.324 74.0607 156.256 73.7727C156.176 73.4367 156.184 73.2573 156.28 73.2345C156.376 73.2117 156.56 73.3455 156.832 73.6359C156.962 73.7571 157.075 73.8063 157.171 73.7835C156.679 71.923 155.558 70.085 153.808 68.2694C153.671 68.7584 153.434 69.0428 153.098 69.1226C152.858 69.1795 152.656 69.0754 152.492 68.8103C152.496 68.4035 152.643 68.1659 152.931 68.0975C152.967 68.0381 152.945 67.9421 152.862 67.8095C152.828 67.6655 152.848 67.5341 152.921 67.4153L152.993 67.3982C151.643 66.1976 150.112 65.0907 148.401 64.0773C148.056 63.9057 146.903 63.3177 144.94 62.3133C142.978 61.3089 141.273 60.2178 139.827 59.04C138.381 57.8623 137.194 56.5978 136.264 55.2466C135.803 54.7984 135.416 54.1298 135.104 53.2406C134.802 52.3994 134.445 51.749 134.032 51.2895C133.95 51.1569 133.869 50.9226 133.789 50.5866L133.502 49.0575C133.365 48.4815 133.342 47.8531 133.434 47.1721C133.526 46.4911 133.573 46.0489 133.576 45.8455C133.75 45.2972 133.834 44.6939 133.83 44.0357C133.913 43.1034 134.272 42.0546 134.908 40.8895C135.055 40.6519 135.25 40.3012 135.495 39.8374C135.729 39.3256 136.015 38.9281 136.353 38.645C136.463 38.4668 136.603 38.2052 136.775 37.8602C136.995 37.5038 137.291 37.256 137.663 37.1168C137.976 36.941 138.627 36.5838 139.614 36.045C140.602 35.5062 141.528 35.1343 142.392 34.9291C143.208 34.7353 144.017 34.6192 144.819 34.5808C145.118 34.5604 145.466 34.5286 145.861 34.4854C146.257 34.4423 146.718 34.358 147.246 34.2326C147.918 34.073 148.411 33.9053 148.724 33.7295C148.882 33.5399 149.247 33.4784 149.821 33.545C150.431 33.5522 150.914 33.6656 151.271 33.8852C151.664 34.0454 151.709 34.2374 151.408 34.4612C151.156 34.4702 150.792 34.43 150.314 34.3406C149.885 34.2398 149.513 34.2773 149.2 34.4531C149.497 34.6361 149.752 34.8545 149.964 35.1083C150.176 35.3621 150.353 35.5736 150.495 35.7428C151.393 35.6816 152.561 35.5817 153.999 35.4431L153.652 35.9057C154.415 36.1301 154.837 36.4103 154.917 36.7463C154.962 36.9383 154.769 37.0856 154.337 37.1882C154.001 37.268 153.576 37.2929 153.062 37.2628C152.788 37.1758 152.309 37.1881 151.625 37.2997C150.979 37.3519 150.881 37.4764 151.334 37.6732C151.622 37.6048 152.351 37.6852 153.521 37.9144C154.727 38.0842 155.024 38.2672 154.412 38.4634C154.124 38.5318 153.997 38.638 154.031 38.782C154.065 38.926 154.296 39.1501 154.723 39.4543C155.15 39.7585 155.375 39.9586 155.398 40.0546L155.432 40.1986C155.512 40.5346 155.424 40.9104 155.168 41.3262C154.948 41.6826 154.683 41.847 154.372 41.8194C153.597 41.547 152.839 41.4483 152.096 41.5233C151.401 41.5869 150.4 41.7485 149.093 42.0083C148.229 42.2135 147.575 42.3434 147.132 42.398C146.832 42.4184 146.419 42.4913 145.891 42.6166C144.115 43.0384 142.718 43.7758 141.7 44.8287C140.683 45.8816 140.339 47.1041 140.67 48.4961C140.898 49.456 141.455 50.4139 142.341 51.3697C143.273 52.5174 144.296 53.5167 145.411 54.3675C146.526 55.2183 148.074 56.2956 150.057 57.5993C150.306 57.7937 151.066 58.3232 152.336 59.1878C153.654 60.041 154.858 60.9467 155.948 61.9049C156.137 62.0627 156.533 62.4503 157.136 63.0676C157.776 63.6256 158.272 64.2178 158.623 64.8442C159.011 65.4112 159.255 66.0124 159.356 66.6477C160.018 67.3017 160.542 68.0139 160.928 68.7843C161.362 69.5433 161.935 70.6748 162.647 72.179L162.865 73.42C163.093 74.38 163.52 75.7492 164.145 77.5275L164.265 78.0315C164.527 79.1354 164.73 79.6703 164.874 79.6361C165.018 79.6019 165.123 79.298 165.19 78.7245ZM153.116 38.7712C152.997 38.698 152.853 38.7322 152.684 38.8738C152.732 38.8624 152.815 38.8933 152.934 38.9665L153.116 38.7712ZM148.853 65.339C148.723 65.2178 148.485 65.0714 148.14 64.8998C147.843 64.7168 147.75 64.5363 147.86 64.3581C147.978 64.4313 148.162 64.5651 148.411 64.7595C148.697 64.8945 148.844 65.0876 148.853 65.339ZM149.604 65.6171C150.209 66.0311 150.659 66.4313 150.954 66.8177C151.285 67.1447 151.402 67.3196 151.306 67.3424C151.066 67.3994 150.474 66.9317 149.528 65.9393L149.604 65.6171ZM158.694 78.5939C158.685 78.3425 158.67 78.0671 158.65 77.7677C158.63 77.4683 158.574 77.1266 158.483 76.7426C158.357 76.2147 158.116 75.8409 157.76 75.6213L157.575 74.5242C157.496 74.1882 157.367 73.9653 157.188 73.8555C157.405 74.7675 157.688 75.6384 158.037 76.4681C158.361 77.4053 158.58 78.1139 158.694 78.5939ZM164.897 76.2082C164.981 76.1374 165.096 76.0849 165.24 76.0507C165.384 76.0165 165.515 76.036 165.634 76.1092C165.753 76.1824 165.811 76.3207 165.808 76.5241L165.609 76.6473C165.465 76.6815 165.228 76.5351 164.897 76.2082ZM160.548 79.6748C160.596 79.6634 160.59 79.6394 160.531 79.6028C160.519 79.5548 160.508 79.5068 160.497 79.4588C160.353 79.493 160.37 79.565 160.548 79.6748ZM155.124 87.58C155.147 87.676 155.23 87.7069 155.374 87.6727C155.518 87.6385 155.579 87.5734 155.556 87.4774C155.496 87.4408 155.419 87.4339 155.323 87.4567C155.215 87.4315 155.149 87.4726 155.124 87.58ZM181.717 93.2816C179.326 90.0465 177.055 85.8196 174.903 80.601C174.624 79.8558 174.297 78.6913 173.921 77.1073L172.813 72.1224C172.551 71.0184 172.328 70.1842 172.143 69.6196C170.633 64.7555 169.445 60.4996 168.578 56.8517C168.305 55.6997 167.931 53.9124 167.457 51.4897L166.777 48.3047C166.211 45.498 165.758 43.3747 165.416 41.9347C164.857 39.5828 164.369 37.848 163.952 36.7302C163.858 36.5496 163.714 36.0513 163.521 35.2353C163.452 34.9473 163.27 34.1794 162.974 32.9314C162.725 31.6721 162.431 30.7532 162.091 30.1748C161.739 29.5484 161.4 29.4008 161.073 29.732C160.35 30.1064 159.47 30.6704 158.432 31.4239C157.877 31.8601 157.291 32.278 156.676 32.6775C156.05 33.0291 155.449 33.2733 154.873 33.4101C154.393 33.5241 153.896 33.5661 153.382 33.5361C152.986 33.5793 152.76 33.4809 152.703 33.2409C152.68 33.1449 152.694 32.9895 152.745 32.7747C152.736 32.5233 152.69 32.3313 152.608 32.1987C152.263 32.0271 151.822 31.8783 151.285 31.7523C150.7 31.6377 150.187 31.506 149.746 31.3572C150.45 30.48 150.751 29.8255 150.649 29.3935C150.614 29.2495 150.526 29.0929 150.385 28.9237C150.243 28.7545 150.155 28.5979 150.121 28.4539C150.041 28.1179 150.388 27.6553 151.161 27.0662C151.476 26.687 152.09 26.3891 153.002 26.1725C153.962 25.9446 154.605 25.665 154.932 25.3338C156.03 24.6168 158.192 23.368 161.42 21.5873C162.047 21.2357 162.739 20.8431 163.498 20.4093C164.305 19.9641 165.197 19.4482 166.173 18.8614C166.39 18.7084 166.704 18.5326 167.113 18.334C167.51 18.0874 167.717 17.7847 167.734 17.426C168.25 17.2526 168.991 16.8485 169.956 16.2137C170.921 15.579 171.709 15.1635 172.322 14.9673C173.165 14.4627 174.074 14.0188 175.048 13.6354L177.359 12.4781C178.239 11.9141 178.943 11.5694 179.471 11.444C179.951 11.3301 180.087 11.4753 179.879 11.8796C179.707 12.2246 179.145 12.7385 178.191 13.4213C178.237 13.6133 178.356 13.6865 178.548 13.6409C178.692 13.6067 178.872 13.5131 179.09 13.3601C179.355 13.1957 179.559 13.0964 179.703 13.0622C179.745 12.596 179.986 12.4373 180.427 12.5861C180.664 12.7325 180.903 12.7772 181.143 12.7202C181.287 12.686 181.636 12.5525 182.189 12.3198C182.596 12.3246 183.012 12.5808 183.436 13.0883C183.861 13.5959 184.283 13.8761 184.701 13.9289C184.458 14.1893 184.208 14.6291 183.949 15.2483C183.679 15.8194 183.471 16.2238 183.325 16.4614C183.345 16.7608 183.252 17.011 183.047 17.212C182.829 17.365 182.703 17.4712 182.666 17.5306C181.701 18.1653 180.618 18.7269 179.415 19.2153C178.201 19.6556 177.456 19.934 177.18 20.0504C175.593 20.63 174.409 21.0886 173.628 21.4264L172.197 22.4505C171.619 22.7907 170.986 23.22 170.298 23.7384C170.521 24.0402 170.482 24.3029 170.181 24.5267C169.927 24.7391 169.481 24.9971 168.843 25.3007C167.977 25.7093 167.47 26.0323 167.324 26.2699C168.398 26.5219 169.095 27.3199 169.414 28.6639C169.505 29.0479 169.594 29.6352 169.68 30.426C169.726 30.618 169.763 30.9894 169.793 31.5402C169.87 32.0795 170.008 32.5538 170.207 32.963C170.505 34.0076 170.9 35.5618 171.39 37.6258C172.074 40.5057 172.967 44.9077 174.07 50.8319C174.687 54.2854 175.37 57.7995 176.117 61.3741C176.379 62.4781 176.597 63.2884 176.771 63.805C177.639 67.2494 178.419 70.1065 179.11 72.3763C179.79 74.598 180.662 76.7741 181.726 78.9047C181.84 79.3846 182.196 80.1367 182.794 81.1609C183.381 82.1371 183.75 82.7337 183.903 82.9509C184.561 84.0117 185.176 85.1079 185.749 86.2394C186.37 87.3596 186.76 88.2557 186.92 88.9277C187.102 89.6956 187.024 90.2212 186.686 90.5044C186.27 90.2482 186.014 90.1315 185.918 90.1543C185.87 90.1657 185.857 90.3211 185.877 90.6205C185.957 90.9565 185.947 91.2376 185.849 91.4637C185.799 91.6785 185.552 91.8132 185.108 91.8678C184.809 91.8882 184.577 91.7658 184.413 91.5006C184.296 91.224 184.197 91.0194 184.115 90.8868C183.987 90.5623 183.756 90.3382 183.423 90.2146C183.137 90.0796 182.874 90.0406 182.634 90.0976C182.25 90.1887 182.002 90.4251 181.89 90.8067C181.504 91.1013 181.315 91.3743 181.324 91.6257C181.344 91.9251 181.466 92.2257 181.69 92.5275C181.925 92.8772 181.934 93.1286 181.717 93.2816ZM171.217 64.4394C171.16 64.1994 171.008 63.8805 170.761 63.4827L170.997 64.7957C171.066 65.0837 171.217 65.4026 171.453 65.7524L171.217 64.4394ZM224.429 81.1607C224.189 81.2177 223.957 81.0953 223.733 80.7935C223.51 80.4917 223.333 80.2802 223.202 80.159C221.102 79.6436 219.331 78.6953 217.887 77.3141C216.444 75.933 215.295 74.4057 214.441 72.7324C213.588 71.059 212.603 68.8337 211.487 66.0564C210.592 63.7842 209.8 61.9441 209.111 60.5359C208.458 59.0684 207.666 57.7607 206.734 56.613L198.107 60.6393C197.896 62.312 197.822 64.0283 197.885 65.788C197.996 67.5363 198.191 69.7464 198.47 72.4181C198.766 74.731 198.946 76.7673 199.009 78.527C199.12 80.2754 199.088 81.9562 198.913 83.5695C198.278 83.6697 197.875 83.7906 197.706 83.9322C197.596 84.1104 197.563 84.3972 197.606 84.7926C197.638 85.14 197.611 85.4508 197.524 85.7249C197.448 86.0471 197.252 86.3978 196.937 86.777C196.525 87.179 196.159 87.2405 195.84 86.9615C195.568 86.6711 195.333 86.3213 195.134 85.9121C194.995 85.5395 194.89 85.3109 194.819 85.2263C194.543 85.3427 194.456 85.6169 194.558 86.0489C194.661 86.4809 194.705 86.7746 194.691 86.93C194.543 87.3709 194.42 87.6028 194.324 87.6256C194.132 87.6712 193.951 87.334 193.78 86.6141C193.609 85.8941 193.332 83.9823 192.95 80.8786C192.768 79.0456 192.631 78.0389 192.537 77.8583C192.263 76.7063 191.983 76.1645 191.695 76.2329L191.623 76.25C191.479 76.2842 191.367 76.1333 191.287 75.7973L191.085 74.6283C190.673 73.1037 190.482 71.0194 190.513 68.3753C190.506 67.9205 190.483 67.3937 190.442 66.795C190.438 66.1368 190.392 65.4123 190.306 64.6215C190.091 64.5711 189.912 64.563 189.768 64.5972C189.576 64.6428 189.329 64.7775 189.027 65.0013C188.762 65.1657 188.515 65.3004 188.287 65.4054C187.502 65.9465 186.281 66.5663 184.621 67.2647C184.333 67.333 184.124 67.3066 183.994 67.1854C183.852 67.0163 183.671 66.6791 183.449 66.1739C183.228 65.6687 182.914 65.4137 182.507 65.4089C182.041 65.3675 181.762 65.1548 181.671 64.7708C181.546 64.2428 181.625 63.6155 181.909 62.889C181.982 62.7702 182.494 62.4711 183.445 61.9917C184.444 61.501 185.124 61.162 185.485 60.9748C187.266 60.1463 188.536 59.5151 189.295 59.0813C190.054 58.6476 190.08 58.4385 189.374 58.4541C189.072 58.6778 188.729 58.8353 188.345 58.9265C188.105 58.9835 187.907 59.0051 187.752 58.9913C187.761 59.2427 187.646 59.3969 187.406 59.4539C187.31 59.4767 187.136 59.4926 186.885 59.5016C186.633 59.5106 186.488 59.6465 186.449 59.9093C186.042 59.9045 185.64 60.0253 185.242 60.2719C184.833 60.4705 184.58 60.5812 184.484 60.604C183.666 61.0012 183.035 61.2271 182.592 61.2817L182.575 61.2097C182.518 60.9697 182.76 60.7093 183.302 60.4285C183.844 60.1477 184.157 59.9719 184.241 59.9011C183.631 59.8939 183.303 59.7943 183.258 59.6023C183.212 59.4103 183.641 59.0803 184.544 58.6124C185.435 58.0964 186.362 57.6227 187.325 57.1914C189.153 56.3514 190.104 55.8721 190.178 55.7533C190.313 55.4677 190.372 54.9718 190.357 54.2656C190.341 53.5594 190.467 53.0225 190.735 52.6547C190.865 51.7109 190.954 50.2701 191.001 48.3322C191.002 47.2672 191.01 46.5553 191.026 46.1965L191.374 44.1365C191.619 42.6078 191.765 41.4069 191.811 40.534C191.894 39.6016 191.857 38.6977 191.7 37.8224C191.466 38.3341 191.294 39.2116 191.184 40.4547C191.115 41.2317 191.012 41.8647 190.874 42.3537C190.785 42.8313 190.601 43.2299 190.322 43.5497C190.137 42.9851 190.103 42.3087 190.22 41.5203C190.385 40.7205 190.476 40.1413 190.492 39.7825C190.414 39.2431 190.505 38.6638 190.764 38.0446C191.011 37.3775 191.172 36.8828 191.248 36.5606C191.214 36.4166 191.083 36.2954 190.857 36.197C190.679 36.0872 190.597 35.9546 190.611 35.7992C190.664 35.381 190.738 34.6281 190.835 33.5403C190.92 32.4045 191.087 31.4014 191.337 30.5308C191.399 30.364 191.479 30.1675 191.577 29.9413C191.664 29.6672 191.691 29.4581 191.657 29.3141C191.659 29.1107 191.589 28.9244 191.448 28.7552C191.283 28.49 191.173 28.2374 191.116 27.9974C191.024 27.6134 191.093 27.3689 191.322 27.2639C191.562 27.2069 191.758 27.287 191.911 27.5042C192.112 27.71 192.285 27.7958 192.429 27.7616C192.573 27.7274 192.623 27.5127 192.58 27.1173C192.585 26.7105 192.594 26.4294 192.608 26.274C192.67 26.1072 192.778 26.0307 192.934 26.0445C193.089 26.0583 193.191 26.0595 193.239 26.0481C193.557 25.4655 193.8 25.1035 193.97 24.9619C194.187 24.8089 194.668 24.5932 195.413 24.3148C196.084 25.2202 196.873 25.8697 197.777 26.2633C200.325 30.3738 202.059 33.5114 202.979 35.6761C203.472 36.4717 204.046 37.5015 204.701 38.7657C204.959 39.2115 205.311 39.8379 205.756 40.6448C206.249 41.4404 206.66 42.1034 206.989 42.6338C207.224 42.9836 207.458 43.4351 207.691 43.9882C208.321 45.3598 208.898 46.1863 209.421 46.4677C210.072 46.0087 210.886 45.4858 211.862 44.8991C212.669 44.4539 213.465 43.9607 214.249 43.4196C214.814 43.2348 215.519 42.7884 216.365 42.0804C216.498 41.9982 216.823 41.7688 217.342 41.392C217.861 41.0152 218.385 40.7641 218.913 40.6387C219.091 40.7485 219.191 40.8514 219.214 40.9474C219.248 41.0914 219.228 41.3245 219.152 41.6467C219.077 41.9689 219.122 42.1609 219.289 42.2227C219.881 41.7271 220.321 41.4451 220.609 41.3767C220.993 41.2855 221.457 41.5303 222.001 42.1111C221.843 42.3007 221.571 42.5428 221.184 42.8374C220.798 43.132 220.531 43.398 220.385 43.6356C220.504 43.7088 220.611 43.734 220.707 43.7112C220.851 43.677 220.966 43.6245 221.05 43.5538C221.171 43.4236 221.304 43.3414 221.448 43.3072C221.688 43.2502 221.854 43.4137 221.945 43.7977C222.075 43.9189 222.188 43.9681 222.284 43.9453C222.38 43.9225 222.494 43.87 222.627 43.7878C222.759 43.7056 222.874 43.6531 222.97 43.6303L223.076 43.7572C223.11 43.9012 222.976 44.0851 222.675 44.3088C222.421 44.5212 222.257 44.6868 222.184 44.8056C222.554 44.8698 222.768 45.0219 222.825 45.2619C222.882 45.5019 222.782 45.8298 222.526 46.2456C222.318 46.65 222.069 46.988 221.778 47.2598C221.709 48.0368 221.24 48.7313 220.371 49.3432C219.539 49.8958 218.257 50.5806 216.524 51.3978C214.647 52.2491 213.461 52.9112 212.965 53.384C213.958 55.4299 214.931 57.6072 215.885 59.916C217.458 63.5483 218.852 66.5383 220.069 68.886C221.322 71.1743 222.841 73.2983 224.624 75.2578C224.944 75.5368 225.138 75.8203 225.207 76.1083C225.264 76.3483 225.265 76.7791 225.209 77.4006C225.221 77.4486 225.344 77.6475 225.579 77.9973C225.862 78.3357 225.801 78.5025 225.394 78.4977C225.168 78.3993 224.983 78.3672 224.839 78.4014C224.754 78.4722 224.627 78.5784 224.458 78.72C224.012 78.978 223.823 79.251 223.892 79.5389C223.926 79.6829 224.061 79.9298 224.296 80.2796C224.579 80.618 224.647 80.906 224.501 81.1436L224.429 81.1607ZM192.56 37.9223C192.743 37.6253 192.861 37.2677 192.914 36.8495C192.967 36.4313 192.935 36.0839 192.818 35.8073C192.647 36.1523 192.547 36.4802 192.52 36.791C192.481 37.0538 192.494 37.4309 192.56 37.9223ZM192.425 40.2361C192.439 40.0807 192.49 39.7642 192.58 39.2866C192.669 38.809 192.644 38.3839 192.505 38.0114C192.359 38.2489 192.252 38.6545 192.186 39.2281C192.167 39.7903 192.247 40.1263 192.425 40.2361ZM198.136 52.1139C199.124 51.5751 200.344 51.0571 201.798 50.5597C202.447 50.3041 202.862 50.1296 203.043 50.036C203.212 49.8944 203.251 49.6316 203.16 49.2476C203.068 48.8636 202.508 47.6783 201.479 45.6918C201.104 44.9694 200.629 44.1441 200.054 43.216C199.068 41.6248 198.464 40.5766 198.242 40.0715C198.101 39.9023 197.894 39.6725 197.622 39.3821C197.351 39.0917 197.191 38.9522 197.143 38.9636C197.047 38.9864 197.022 39.5246 197.07 40.5781C197.079 40.8295 197.059 41.4934 197.01 42.5698C196.962 43.6461 197.022 44.646 197.19 45.5693C197.428 45.7157 197.598 46.0049 197.7 46.4369C197.826 46.9649 197.845 47.8985 197.757 49.2376C197.661 50.3254 197.664 51.0852 197.766 51.5172C197.835 51.8052 197.958 52.0041 198.136 52.1139ZM195.59 44.2761C195.666 43.9539 195.766 43.5243 195.893 42.9873C196.007 42.4023 196.061 41.8825 196.055 41.4277C196.096 40.9615 196.047 40.5421 195.908 40.1695C195.544 41.6251 195.438 42.9939 195.59 44.2761ZM197.104 46.8068C197.323 46.4504 197.31 46.0733 197.063 45.6755C196.954 45.8537 196.933 46.0868 197.001 46.3748C197.058 46.6148 197.092 46.7588 197.104 46.8068ZM197.288 47.9039C197.256 47.5565 197.182 47.2445 197.066 46.9679C196.968 47.1941 196.93 47.3552 196.953 47.4512C196.975 47.5472 197.087 47.6981 197.288 47.9039ZM203.127 51.9934C203.056 51.9088 202.984 51.9259 202.911 52.0447C202.827 52.1155 202.856 52.1338 203 52.0996L203.127 51.9934ZM201.18 52.7601C201.383 52.7625 201.538 52.7763 201.646 52.8015C201.79 52.7673 201.869 52.6725 201.883 52.5171C201.812 52.4325 201.686 52.437 201.505 52.5306C201.361 52.5648 201.253 52.6413 201.18 52.7601ZM197.895 54.3008C197.954 54.3374 198.104 54.3272 198.344 54.2702C198.728 54.179 199.167 53.9988 199.661 53.7294C200.202 53.4486 200.462 53.2602 200.439 53.1642C200.428 53.1162 200.068 53.2017 199.359 53.4207L198.927 53.5233C198.591 53.6031 198.333 53.6898 198.152 53.7833C197.972 53.8769 197.886 54.0494 197.895 54.3008ZM224.017 11.361C223.944 11.4798 223.782 11.5437 223.53 11.5527C223.617 11.2785 223.78 11.2146 224.017 11.361ZM265.298 69.2492C265.833 69.5786 266.147 69.8336 266.24 70.0142C266.345 70.2428 266.558 70.4966 266.877 70.7756L267.001 70.9745C267.023 71.0705 266.956 71.2133 266.798 71.4029C266.688 71.5811 266.627 71.7478 266.613 71.9032C266.574 72.166 266.386 72.3373 266.05 72.4171C265.762 72.4855 265.398 72.4453 264.957 72.2965C264.516 72.1477 264.212 72.0424 264.045 71.9806C263.805 72.0376 263.392 72.1105 262.804 72.1993C262.228 72.3361 261.707 72.3838 261.241 72.3424C260.786 72.3489 260.338 72.2778 259.897 72.129C257.26 71.4876 254.767 70.3812 252.416 68.8099C250.113 67.2271 247.714 65.2363 245.217 62.8376C244.212 61.8086 243.241 60.9236 242.305 60.1826C239.984 58.0971 238.382 56.4747 237.498 55.3156C237.427 55.231 236.86 54.6559 235.796 53.5903C234.779 52.5133 234.262 52.2559 234.243 52.8181C234.471 53.7781 234.618 54.5037 234.684 54.9951L235.125 57.1722C235.239 57.6521 235.458 58.3607 235.782 59.2979C235.627 59.2841 235.513 59.2349 235.443 59.1503C235.42 59.0543 235.403 58.9823 235.391 58.9343C235.177 58.8839 235.017 58.7444 234.912 58.5158C234.855 58.2758 234.779 58.0655 234.686 57.8849C234.672 58.0403 234.915 58.7432 235.415 59.9936C235.926 61.2919 236.221 62.1091 236.301 62.4451C236.335 62.5891 236.328 62.6668 236.28 62.6782C236.184 62.701 235.925 62.3569 235.503 61.6459C235.339 61.3807 235.175 61.0138 235.013 60.5452C234.851 60.0766 234.664 59.7155 234.452 59.4617C234.228 59.1599 233.944 58.9232 233.599 58.7516C233.464 59.0372 233.43 59.3239 233.499 59.6119C233.579 59.9479 233.831 60.3697 234.256 60.8773C234.703 61.4809 234.967 61.9507 235.047 62.2867C235.416 63.4158 236.038 64.9668 236.912 66.9395C237.054 67.1087 237.258 67.5419 237.525 68.2391C237.792 68.9363 238.009 69.3157 238.176 69.3775C238.263 69.1034 238.106 68.6588 237.707 68.0438C237.344 67.3694 237.224 66.8654 237.348 66.5318C237.713 67.0028 238.072 67.5515 238.423 68.1779C238.823 68.7929 239.099 69.209 239.252 69.4262C239.626 70.1485 239.931 70.6846 240.166 71.0344C240.502 70.9546 240.613 70.6747 240.499 70.1947C240.351 69.5708 239.832 68.4518 238.942 66.8378C238.04 65.1759 237.579 64.1952 237.558 63.8958C238.152 64.2618 238.601 64.7637 238.905 65.4015C239.245 65.9799 239.588 66.7857 239.935 67.8188C239.969 67.9628 240.12 68.3834 240.387 69.0806C240.654 69.7778 240.97 70.3618 241.335 70.8328C241.26 71.155 241.245 71.4121 241.29 71.6041C241.347 71.8441 241.571 72.1459 241.962 72.5095C242.364 72.9211 242.557 73.3063 242.54 73.665C242.504 73.7244 242.366 73.7826 242.126 73.8396C241.945 73.9332 241.853 74.0817 241.851 74.2851C241.88 74.8359 241.826 75.3558 241.689 75.8447C241.563 76.3817 241.338 76.7141 241.013 76.8419C240.773 76.8989 240.495 77.117 240.18 77.4962C239.924 77.9119 239.724 78.1369 239.58 78.1711C239.388 78.2167 239.18 78.0886 238.956 77.7868C238.862 77.6062 238.762 77.5033 238.654 77.4781C238.547 77.4529 238.368 77.4448 238.116 77.4538C237.961 77.44 237.795 77.2765 237.619 76.9633C237.455 76.6982 237.284 76.5107 237.106 76.4009C236.975 76.2797 236.837 76.3379 236.691 76.5755C236.581 76.7536 236.502 76.8484 236.454 76.8598C236.358 76.8826 236.161 76.8025 235.864 76.6195C235.627 76.4731 235.436 76.417 235.292 76.4512C234.993 76.4716 234.748 76.4029 234.559 76.2451C234.417 76.0759 234.253 75.8107 234.065 75.4496C230.904 68.5438 228.096 61.0977 225.642 53.1114C225.403 52.1034 225.196 51.3411 225.023 50.8246L224.421 48.6097C224.296 48.0817 224.167 47.3264 224.035 46.3436C223.692 45.9686 223.097 45.1718 222.25 43.9533L222.168 43.2882C222.111 43.0482 221.994 42.8733 221.816 42.7635C221.866 42.5487 221.969 42.4482 222.124 42.462C222.28 42.4758 222.381 42.477 222.429 42.4656C222.96 42.1368 223.139 41.6125 222.968 40.8925C222.889 40.5565 222.785 40.2262 222.657 39.9016C222.518 39.529 222.408 39.1747 222.329 38.8388C222.237 38.4548 222.217 38.1554 222.267 37.9406C222.165 37.5086 222.307 37.1453 222.693 36.8507C222.595 36.012 222.358 34.8006 221.982 33.2167C221.939 32.8213 221.826 32.2396 221.644 31.4716C221.589 31.0282 221.454 30.3506 221.237 29.4386C220.975 28.3346 220.733 27.5301 220.512 27.0249C220.008 25.1163 219.54 24.2134 219.108 24.316C218.724 24.4071 218.484 25.4274 218.39 27.3767C217.992 27.6233 217.707 27.3866 217.536 26.6667C217.457 26.3307 217.425 25.9833 217.441 25.6245C217.457 25.2657 217.502 25.0269 217.575 24.9081L217.545 24.459C217.522 24.363 217.486 24.3207 217.438 24.3321C217.342 24.3549 217.161 24.5502 216.893 24.918C216.614 25.2378 216.451 25.4034 216.403 25.4148C216.416 25.2594 216.564 24.9201 216.845 24.3969C217.175 23.8623 217.322 23.5231 217.288 23.3791C217.254 23.2351 217.051 23.2327 216.678 23.3719L216.606 23.389C216.462 23.4232 216.332 23.302 216.215 23.0254C216.088 22.7008 215.916 22.5133 215.701 22.4629C215.667 22.3189 215.668 22.2172 215.705 22.1578L215.163 22.4386L215.146 22.3666C215.089 22.1266 215.145 21.9358 215.315 21.7942C215.52 21.5932 215.688 21.5533 215.819 21.6745L215.712 21.5476C215.763 21.3328 215.777 21.1774 215.754 21.0814C215.697 20.8414 215.561 20.6962 215.346 20.6458C215.179 20.584 214.993 20.6536 214.787 20.8546C214.945 20.665 215.418 20.0963 216.207 19.1483C217.033 18.141 217.266 17.6292 216.908 17.613C216.546 17.8002 215.73 18.5264 214.459 19.7918C213.187 21.0571 212.58 21.8098 212.637 22.0498C212.66 22.1457 212.743 22.1766 212.887 22.1425C213.127 22.0855 213.446 21.9337 213.844 21.6871C213.906 21.5203 213.997 21.3718 214.118 21.2416C214.24 21.1114 214.361 20.9812 214.482 20.851C214.525 21.2464 214.318 21.5491 213.861 21.7591C213.788 21.8779 213.696 22.0264 213.587 22.2046C213.477 22.3828 213.415 22.5495 213.401 22.7049L213.473 22.6878C213.279 22.9368 213.007 23.1789 212.657 23.4141C212.307 23.6493 212.005 23.8731 211.752 24.0855C211.678 24.2043 211.665 24.3597 211.71 24.5516C211.744 24.6956 211.749 24.8213 211.724 24.9287C211.637 25.2029 211.533 25.4051 211.411 25.5353C211.242 25.6769 211.094 25.5854 210.966 25.2608C211.022 22.5093 212.433 20.1208 215.197 18.0953C217.949 16.0219 221.468 13.9694 225.752 11.9379L227.178 11.2189C227.107 11.1343 226.952 11.1205 226.712 11.1775C226.616 11.2003 226.43 11.2698 226.153 11.3862C225.913 11.4432 225.818 11.3643 225.869 11.1495C226.207 10.8664 226.64 10.6621 227.168 10.5367C227.456 10.4683 227.852 10.4251 228.354 10.4071C228.894 10.3297 229.337 10.2751 229.684 10.2433C230.356 10.0837 231.002 10.1333 231.621 10.3919C232.24 10.6505 232.793 10.9501 233.28 11.2909C233.814 11.6203 234.176 11.8639 234.366 12.0217C234.734 12.2893 235.244 12.6244 235.898 13.027C236.599 13.4182 237.121 13.8013 237.464 14.1763C238.891 15.9162 239.918 18.1062 240.545 20.7461C240.933 22.378 241.134 24.0796 241.149 25.8507C241.085 26.2209 241.007 26.7465 240.915 27.4274C240.871 28.097 240.673 28.6511 240.321 29.0897C240.388 31.5076 240.337 33.3198 240.167 34.5264C240.432 34.362 240.603 34.1187 240.678 33.7965C240.79 33.4149 240.868 32.8893 240.912 32.2198C241.043 31.276 241.163 30.715 241.273 30.5368L241.205 30.2488C241.182 30.1528 241.237 30.0638 241.369 29.9816C241.55 29.888 241.671 29.7578 241.733 29.591C242.356 31.5727 241.393 34.5648 238.845 38.5672C238.65 38.8162 238.395 39.1303 238.08 39.5095C237.812 39.8772 237.617 40.2279 237.493 40.5615C237.443 40.7763 237.168 41.2218 236.67 41.8979C235.965 42.7751 235.724 43.4663 235.945 43.9715C236.537 44.5408 237.939 45.8557 240.152 47.9161C241.751 49.311 243.083 50.5413 244.147 51.6069C245.2 52.6245 246.126 53.7482 246.925 54.9782L246.977 55.1942C247.045 55.4822 247.246 55.688 247.58 55.8116C247.95 55.8758 248.189 55.9205 248.296 55.9457L250.639 58.1272C250.79 58.5478 251.025 58.8976 251.345 59.1766C251.665 59.4556 252.033 59.7232 252.448 59.9794C252.901 60.1762 253.275 60.3661 253.572 60.5491C257.143 63.1998 260.319 64.8288 263.099 65.436C263.314 65.4864 263.821 65.5941 264.621 65.7591C265.469 65.9128 265.933 66.1575 266.013 66.4935C266.058 66.6855 265.906 66.8991 265.556 67.1343C265.531 67.2417 265.536 67.3674 265.57 67.5114C265.663 67.692 265.722 67.8303 265.744 67.9263L265.796 68.1423L265.881 68.5023C265.927 68.6943 265.907 68.8256 265.823 68.8964C265.749 69.0152 265.575 69.1328 265.298 69.2492ZM222.862 11.9397C222.825 11.9991 222.783 12.0345 222.735 12.0459C222.675 12.0093 222.622 11.9967 222.574 12.0081C222.562 11.9601 222.586 11.9544 222.646 11.991C222.742 11.9682 222.814 11.9511 222.862 11.9397ZM219.496 17.3025C219.642 17.0649 219.704 16.8981 219.681 16.8021C219.681 16.8021 219.657 16.8078 219.609 16.8192C219.598 16.7712 219.592 16.7472 219.592 16.7472C219.448 16.7814 219.213 16.9641 218.886 17.2953C218.595 17.5671 218.425 17.8104 218.374 18.0252C218.061 18.201 217.582 18.7457 216.937 19.6595C216.281 20.5253 216.229 20.8417 216.782 20.609C216.94 20.4194 217.237 20.0699 217.674 19.5605C218.111 19.0511 218.344 18.5394 218.374 18.0252L218.59 17.9739C218.878 17.9055 219.18 17.6817 219.496 17.3025ZM226.84 15.5585C226.744 15.5813 226.635 15.6578 226.514 15.788C226.429 15.8588 226.326 15.9593 226.205 16.0895L226.726 16.0418C226.87 16.0076 226.979 15.9311 227.052 15.8123C227.173 15.6821 227.252 15.5873 227.289 15.5279L226.84 15.5585ZM232.757 37.2748C234.102 35.8906 234.799 34.1279 234.848 31.9866C235.043 31.7376 234.972 30.588 234.638 28.5379C234.303 26.4878 233.919 24.5508 233.486 22.7268C233.155 21.3349 232.942 20.6503 232.846 20.6731C232.75 20.6959 232.735 20.953 232.801 21.4444L231.976 19.891C231.357 18.5674 230.741 17.573 230.126 16.9076C229.5 16.1942 228.708 15.9515 227.748 16.1795C227.604 16.2137 227.303 16.3358 226.846 16.5458L227.528 16.5359L227.545 16.6079C227.579 16.7519 227.5 16.8467 227.308 16.8922C227.212 16.915 227.044 16.9549 226.804 17.0119C226.601 17.0095 226.457 17.0437 226.372 17.1145C226.276 17.1373 226.251 17.2447 226.297 17.4367C226.475 17.5465 226.684 17.5729 226.924 17.5159C227.068 17.4817 227.302 17.4007 227.627 17.2729C228 17.1338 228.233 17.1545 228.326 17.335C227.259 17.5378 226.639 17.8117 226.468 18.1567C226.333 18.4423 226.334 18.8731 226.471 19.449C226.644 19.9656 226.765 20.3679 226.833 20.6559L227.544 24.29C228.349 28.1046 228.805 30.9878 228.914 32.9396C228.911 33.143 228.961 33.4607 229.064 33.8926C229.235 34.6126 229.478 35.3155 229.793 36.0013C230.117 36.9384 230.336 37.647 230.45 38.127L230.535 38.487C230.627 38.871 230.792 39.0345 231.032 38.9775C231.224 38.9319 231.478 38.7195 231.794 38.3403C232.109 37.9611 232.328 37.7064 232.449 37.5762L232.308 37.3054C232.251 37.0654 232.331 36.8689 232.549 36.7159C232.713 36.9811 232.783 37.1674 232.757 37.2748ZM234.829 16.8555C234.804 16.9629 234.809 17.0885 234.843 17.2325C234.877 17.3765 235.088 17.732 235.477 18.299L235.48 17.9939C235.435 17.8019 235.335 17.5973 235.182 17.3801C235.029 17.1629 234.912 16.9881 234.829 16.8555ZM234.288 17.1362C234.203 17.207 234.202 17.3087 234.284 17.4413C234.355 17.5259 234.409 17.5385 234.445 17.4791C234.434 17.4311 234.417 17.3591 234.394 17.2631C234.419 17.1557 234.384 17.1134 234.288 17.1362ZM215.87 21.8905L215.853 21.8185L215.87 21.8905ZM213.523 26.0987C213.228 25.7123 213.296 25.0371 213.726 24.0729C214.156 23.1087 214.635 22.564 215.163 22.4386C215.017 22.6762 215.026 22.9276 215.19 23.1927C214.829 23.3799 214.557 23.622 214.374 23.919C214.191 24.216 214.049 24.5793 213.948 25.0089C213.788 25.4018 213.646 25.7651 213.523 26.0987ZM233.371 20.3203C233.293 20.8459 233.36 21.2356 233.572 21.4894C233.634 21.3226 233.642 21.1432 233.596 20.9512C233.539 20.7112 233.464 20.5009 233.371 20.3203ZM233.905 20.6497C233.987 20.7823 234.041 20.7949 234.066 20.6875C234.08 20.5321 234.039 20.4658 233.943 20.4886L233.905 20.6497ZM216.196 27.7457C216.118 27.2063 216.093 26.7812 216.121 26.4704C216.137 26.1116 216.237 25.7838 216.42 25.4868L216.403 25.4148C216.544 25.584 216.626 25.7166 216.649 25.8126C216.695 26.0046 216.619 26.3267 216.422 26.7791C216.262 27.1721 216.187 27.4943 216.196 27.7457ZM214.592 26.7575C214.532 26.7209 214.521 26.6729 214.558 26.6135C214.631 26.4947 214.66 26.513 214.647 26.6684L214.592 26.7575ZM236.411 27.3563C236.002 26.4899 235.667 25.5047 235.404 24.4008C235.035 23.2716 234.728 22.4064 234.484 21.8053C234.573 22.3926 234.754 23.2623 235.027 24.4143C235.392 25.9502 235.652 27.2576 235.807 28.3363C235.998 29.3557 236.069 30.4036 236.021 31.4799C236.3 31.1601 236.442 30.7969 236.447 30.3901C236.499 29.9719 236.5 29.4394 236.447 28.7926C236.395 28.1459 236.383 27.6671 236.411 27.3563ZM237.425 28.1042C237.354 28.0196 237.247 27.9944 237.103 28.0286C236.959 28.0628 236.884 28.2833 236.879 28.69C236.875 29.0968 236.906 29.4442 236.975 29.7322C237.055 30.0682 237.054 30.6007 236.974 31.3296C236.93 31.9992 236.972 32.4963 237.1 32.8209C237.221 32.6907 237.325 32.4885 237.412 32.2143C237.488 31.8921 237.64 31.6785 237.868 31.5735L237.903 31.7175C237.937 31.8615 237.995 31.9998 238.077 32.1324C238.196 32.2056 238.273 32.3142 238.307 32.4582C238.375 32.7462 238.462 33.0045 238.567 33.2331C238.66 33.4137 238.748 33.5703 238.83 33.7029C238.755 34.0251 238.71 34.2639 238.696 34.4193C238.683 34.5746 238.711 34.6946 238.782 34.7792C239.038 34.3635 239.247 33.8574 239.41 33.261C239.609 32.6052 239.658 32.0614 239.555 31.6294C239.498 31.3894 239.375 31.1905 239.185 31.0327C239.126 30.9961 239.09 30.9538 239.079 30.9058C239.068 30.8578 239.038 30.8395 238.99 30.8509C238.786 30.8485 238.608 30.7387 238.455 30.5215C238.302 30.3043 238.154 30.2128 238.01 30.247C237.857 30.0298 237.729 29.7052 237.626 29.2732C237.56 28.7818 237.493 28.3922 237.425 28.1042ZM238.381 29.2462C238.417 29.1868 238.406 29.1388 238.346 29.1022C238.324 29.0063 238.3 29.012 238.274 29.1193L238.381 29.2462ZM221.604 34.8276C221.365 33.8196 221.399 33.4311 221.708 33.6621C221.705 33.8655 221.798 34.1478 221.985 34.509C222.172 34.8702 222.3 35.1948 222.368 35.4828C222.482 35.9628 222.383 36.2907 222.069 36.4664L221.604 34.8276ZM239.219 31.1767C239.276 31.4167 239.267 31.6978 239.191 32.0199C239.164 32.3307 239.086 32.3238 238.958 31.9992C238.961 31.7959 238.993 31.6108 239.055 31.444C239.116 31.2772 239.16 31.1401 239.185 31.0327L239.219 31.1767ZM235.933 35.9123C236.445 35.0807 236.603 34.3586 236.407 33.746C236.384 33.65 236.374 33.5004 236.376 33.297C236.427 33.0822 236.375 32.8662 236.222 32.649C236.135 32.9232 235.932 33.4533 235.611 34.2392C235.279 34.9772 235.148 35.4902 235.216 35.7782C235.273 36.0181 235.512 36.0628 235.933 35.9123ZM237.458 35.9303C237.602 35.8961 237.681 35.8013 237.695 35.6459C237.745 35.4311 237.766 35.198 237.757 34.9466C237.684 35.0654 237.568 35.2196 237.41 35.4092C237.253 35.5988 237.22 35.7839 237.314 35.9645L237.458 35.9303ZM238.887 36.5036C238.997 36.3254 239.035 36.1643 239.001 36.0203C238.893 35.9951 238.785 36.0716 238.675 36.2498C238.613 36.4166 238.684 36.5012 238.887 36.5036ZM238.571 37.4152C238.56 37.3672 238.572 37.3135 238.609 37.2541C238.646 37.1948 238.634 37.1468 238.575 37.1102C238.502 37.2289 238.5 37.3306 238.571 37.4152ZM242.362 50.814C242.293 50.526 242.081 50.2722 241.725 50.0526C241.368 49.833 241.16 49.7049 241.101 49.6683C241.067 49.5243 240.99 49.4157 240.871 49.3425C240.741 49.2213 240.652 49.1664 240.604 49.1778C240.508 49.2006 240.471 49.26 240.494 49.356C240.528 49.5 240.694 49.6635 240.991 49.8465C241.286 50.2329 241.504 50.5107 241.645 50.6799C241.824 50.7897 242.074 50.8824 242.396 50.958L242.362 50.814ZM233.033 57.9731C233.07 57.9137 233.077 57.836 233.054 57.74C233.031 57.644 232.99 57.5777 232.931 57.5411C232.894 57.6005 232.887 57.6782 232.91 57.7742C232.981 57.8588 233.022 57.9251 233.033 57.9731Z" fill="url(#paint0_linear)"/>
</g>
<defs>
<filter id="filter0_d" x="0.160156" y="0.151978" width="280.845" height="139.717" filterUnits="userSpaceOnUse" color-interpolation-filters="sRGB">
<feFlood flood-opacity="0" result="BackgroundImageFix"/>
<feColorMatrix in="SourceAlpha" type="matrix" values="0 0 0 0 0 0 0 0 0 0 0 0 0 0 0 0 0 0 127 0"/>
<feOffset dx="2" dy="2"/>
<feGaussianBlur stdDeviation="6"/>
<feColorMatrix type="matrix" values="0 0 0 0 0.316667 0 0 0 0 0.0765278 0 0 0 0 0.295226 0 0 0 0.5 0"/>
<feBlend mode="normal" in2="BackgroundImageFix" result="effect1_dropShadow"/>
<feBlend mode="normal" in="SourceGraphic" in2="effect1_dropShadow" result="shape"/>
</filter>
<linearGradient id="paint0_linear" x1="26.1041" y1="127.275" x2="262.529" y2="71.1279" gradientUnits="userSpaceOnUse">
<stop stop-color="#941BF2"/>
<stop offset="1" stop-color="#F51667"/>
</linearGradient>
</defs>
</svg>
