<svg width="697" height="637" viewBox="0 0 697 637" fill="none" xmlns="http://www.w3.org/2000/svg">
<g filter="url(#filter0_d)">
<path fill-rule="evenodd" clip-rule="evenodd" d="M413.989 531.85C349.223 554.73 275.937 571.454 215.851 538.07C155.138 504.337 134.771 431.592 114.099 365.229C92.1667 294.82 51.4713 211.921 95.9644 153.197C139.924 95.1761 232.419 135.313 302.658 116.358C373.169 97.3288 430.64 22.9594 500.61 43.9935C577.795 67.1961 640.011 141.37 651.515 221.228C662.378 296.644 600.786 357.949 554.546 418.419C516.516 468.153 472.989 511.007 413.989 531.85Z" fill="url(#paint0_linear)"/>
</g>
<defs>
<filter id="filter0_d" x="0.00927734" y="0.28125" width="696.767" height="636.613" filterUnits="userSpaceOnUse" color-interpolation-filters="sRGB">
<feFlood flood-opacity="0" result="BackgroundImageFix"/>
<feColorMatrix in="SourceAlpha" type="matrix" values="0 0 0 0 0 0 0 0 0 0 0 0 0 0 0 0 0 0 127 0"/>
<feOffset dx="-16" dy="20"/>
<feGaussianBlur stdDeviation="30"/>
<feColorMatrix type="matrix" values="0 0 0 0 0 0 0 0 0 0 0 0 0 0 0 0 0 0 0.18 0"/>
<feBlend mode="normal" in2="BackgroundImageFix" result="effect1_dropShadow"/>
<feBlend mode="normal" in="SourceGraphic" in2="effect1_dropShadow" result="shape"/>
</filter>
<linearGradient id="paint0_linear" x1="443.36" y1="525.996" x2="300.116" y2="-8.59893" gradientUnits="userSpaceOnUse">
<stop offset="0.289549" stop-color="#40C7FF"/>
<stop offset="1" stop-color="#0035BE"/>
</linearGradient>
</defs>
</svg>
