<svg width="688" height="598" viewBox="0 0 688 598" fill="none" xmlns="http://www.w3.org/2000/svg">
<g filter="url(#filter0_d)">
<path d="M581.435 98.0622C531.033 80.0644 501.144 105.571 486.813 115.509C472.482 125.448 425.568 147.038 370.071 90.3517C304.006 22.8423 175.739 24.545 110.85 87.4919C52.8227 143.754 77.9823 210.127 109.226 246.274C140.47 282.421 162.172 325.799 117.405 374.871C72.639 423.943 102.027 484.48 173.329 503.665C250.41 524.416 415.368 537.437 535.748 433.664C612.439 367.544 641.557 288.888 643.78 226.502C646.002 164.116 631.844 116.06 581.435 98.0622Z" fill="url(#paint0_linear)"/>
</g>
<defs>
<filter id="filter0_d" x="0" y="-0.000274658" width="688" height="598" filterUnits="userSpaceOnUse" color-interpolation-filters="sRGB">
<feFlood flood-opacity="0" result="BackgroundImageFix"/>
<feColorMatrix in="SourceAlpha" type="matrix" values="0 0 0 0 0 0 0 0 0 0 0 0 0 0 0 0 0 0 127 0"/>
<feOffset dx="-16" dy="20"/>
<feGaussianBlur stdDeviation="30"/>
<feColorMatrix type="matrix" values="0 0 0 0 0 0 0 0 0 0 0 0 0 0 0 0 0 0 0.18 0"/>
<feBlend mode="normal" in2="BackgroundImageFix" result="effect1_dropShadow"/>
<feBlend mode="normal" in="SourceGraphic" in2="effect1_dropShadow" result="shape"/>
</filter>
<linearGradient id="paint0_linear" x1="360" y1="39.9997" x2="360" y2="607.625" gradientUnits="userSpaceOnUse">
<stop offset="0.289549" stop-color="#40C7FF"/>
<stop offset="1" stop-color="#0035BE"/>
</linearGradient>
</defs>
</svg>
