<svg width="688" height="639" viewBox="0 0 688 639" fill="none" xmlns="http://www.w3.org/2000/svg">
<g filter="url(#filter0_d)">
<path d="M581.435 139.062C531.033 121.064 501.144 146.571 486.813 156.509C472.482 166.448 425.568 188.038 370.071 131.352C304.006 63.8423 175.739 65.545 110.85 128.492C52.8227 184.754 77.9823 251.127 109.226 287.274C140.47 323.421 162.172 366.799 117.405 415.871C72.639 464.943 102.027 525.48 173.329 544.665C250.41 565.416 415.368 578.437 535.748 474.664C612.439 408.544 641.557 329.888 643.78 267.502C646.002 205.116 631.844 157.06 581.435 139.062Z" fill="url(#paint0_linear)"/>
</g>
<path d="M469.247 90.6835C370.706 -62.6786 166.612 242.899 109.607 343.434C52.6025 443.969 196.147 491.644 291.058 531.188C442.733 594.381 527.232 549.744 554.277 480.603C581.322 411.462 567.791 244.03 469.247 90.6835Z" fill="url(#paint1_linear)"/>
<defs>
<filter id="filter0_d" x="0" y="40.9997" width="688" height="598" filterUnits="userSpaceOnUse" color-interpolation-filters="sRGB">
<feFlood flood-opacity="0" result="BackgroundImageFix"/>
<feColorMatrix in="SourceAlpha" type="matrix" values="0 0 0 0 0 0 0 0 0 0 0 0 0 0 0 0 0 0 127 0"/>
<feOffset dx="-16" dy="20"/>
<feGaussianBlur stdDeviation="30"/>
<feColorMatrix type="matrix" values="0 0 0 0 0 0 0 0 0 0 0 0 0 0 0 0 0 0 0.18 0"/>
<feBlend mode="normal" in2="BackgroundImageFix" result="effect1_dropShadow"/>
<feBlend mode="normal" in="SourceGraphic" in2="effect1_dropShadow" result="shape"/>
</filter>
<linearGradient id="paint0_linear" x1="360" y1="80.9997" x2="360" y2="648.625" gradientUnits="userSpaceOnUse">
<stop offset="0.289549" stop-color="#40C7FF"/>
<stop offset="1" stop-color="#0035BE"/>
</linearGradient>
<linearGradient id="paint1_linear" x1="635.553" y1="94.9427" x2="151.6" y2="574.346" gradientUnits="userSpaceOnUse">
<stop stop-color="#65FFED"/>
<stop offset="1" stop-color="#327BE9"/>
</linearGradient>
</defs>
</svg>
