<svg width="293" height="208" viewBox="0 0 293 208" fill="none" xmlns="http://www.w3.org/2000/svg">
<path fill-rule="evenodd" clip-rule="evenodd" d="M230.005 -117.927C252.05 -117.243 272.394 -109.993 292.064 -99.803C315.417 -87.7056 344.214 -78.5112 353.991 -53.6977C363.872 -28.6209 346.743 -2.09255 340.958 24.2857C334.387 54.2504 340.279 90.5359 317.871 111.004C295.194 131.717 260.402 126.844 230.005 125.632C200.767 124.467 171.083 121.145 146.983 104.193C122.494 86.9668 104.068 61.1419 96.5478 31.7556C89.2831 3.36805 93.4342 -27.4331 106.629 -53.4953C118.628 -77.1963 141.888 -91.5952 165.145 -103.741C185.326 -114.28 207.351 -118.63 230.005 -117.927Z" stroke="#A987E4" stroke-width="2"/>
<path fill-rule="evenodd" clip-rule="evenodd" d="M258.803 -129.917C291.743 -128.607 320.797 -108.231 343.016 -84.9991C362.44 -64.6911 368.488 -37.0601 373.504 -9.99117C377.873 13.5816 379.6 37.9089 369.884 59.9808C360.659 80.94 341.837 95.9936 321.581 107.971C302.57 119.212 280.632 121.011 258.803 125.664C229.326 131.948 199.899 150.202 171.683 139.925C141.565 128.954 114.322 102.087 110.305 71.5762C106.351 41.5398 141.946 21.1664 152.28 -7.45634C162.311 -35.2411 149.655 -69.29 169.328 -91.9057C190.698 -116.473 225.363 -131.247 258.803 -129.917Z" stroke="#A987E4" stroke-width="2"/>
<g filter="url(#filter0_d)">
<path fill-rule="evenodd" clip-rule="evenodd" d="M222.769 -19.5911C238.048 -24.6207 254.744 -25.9263 269.84 -20.3701C285.061 -14.7679 296.591 -2.62637 305.566 10.883C314.622 24.5131 323.062 40.091 320.776 56.2946C318.558 72.0132 304.38 82.2799 293.821 94.1333C283.849 105.329 275.147 118.185 261.064 123.327C246.218 128.748 228.913 130.119 214.812 122.982C201.204 116.094 197.372 99.3254 188.767 86.7335C179.871 73.7172 164.083 63.8163 163.606 48.0577C163.121 32.0588 175.819 19.1585 186.357 7.10999C196.513 -4.50371 208.114 -14.7671 222.769 -19.5911Z" fill="url(#paint0_linear)"/>
</g>
<g filter="url(#filter1_d)">
<path fill-rule="evenodd" clip-rule="evenodd" d="M138.545 120.334C125.4 122.627 113.096 116.761 102.227 109.042C90.3397 100.601 75.2146 90.8454 76.5899 76.3395C77.9272 62.2353 96.5009 59.1951 107.769 50.5804C118.43 42.4308 126.022 25.4516 139.072 28.5733C152.103 31.6905 151.091 50.2582 156.874 62.3269C162.582 74.2407 175.793 84.306 171.811 96.9071C167.516 110.5 152.605 117.882 138.545 120.334Z" fill="url(#paint1_linear)"/>
</g>
<defs>
<filter id="filter0_d" x="87.5923" y="-63.9884" width="277.562" height="271.86" filterUnits="userSpaceOnUse" color-interpolation-filters="sRGB">
<feFlood flood-opacity="0" result="BackgroundImageFix"/>
<feColorMatrix in="SourceAlpha" type="matrix" values="0 0 0 0 0 0 0 0 0 0 0 0 0 0 0 0 0 0 127 0"/>
<feOffset dx="-16" dy="20"/>
<feGaussianBlur stdDeviation="30"/>
<feColorMatrix type="matrix" values="0 0 0 0 0 0 0 0 0 0 0 0 0 0 0 0 0 0 0.18 0"/>
<feBlend mode="normal" in2="BackgroundImageFix" result="effect1_dropShadow"/>
<feBlend mode="normal" in="SourceGraphic" in2="effect1_dropShadow" result="shape"/>
</filter>
<filter id="filter1_d" x="0.502441" y="-11.8052" width="216.044" height="212.642" filterUnits="userSpaceOnUse" color-interpolation-filters="sRGB">
<feFlood flood-opacity="0" result="BackgroundImageFix"/>
<feColorMatrix in="SourceAlpha" type="matrix" values="0 0 0 0 0 0 0 0 0 0 0 0 0 0 0 0 0 0 127 0"/>
<feOffset dx="-16" dy="20"/>
<feGaussianBlur stdDeviation="30"/>
<feColorMatrix type="matrix" values="0 0 0 0 0 0 0 0 0 0 0 0 0 0 0 0 0 0 0.18 0"/>
<feBlend mode="normal" in2="BackgroundImageFix" result="effect1_dropShadow"/>
<feBlend mode="normal" in="SourceGraphic" in2="effect1_dropShadow" result="shape"/>
</filter>
<linearGradient id="paint0_linear" x1="188.414" y1="143.115" x2="339.604" y2="97.8822" gradientUnits="userSpaceOnUse">
<stop stop-color="#00D2FF"/>
<stop offset="1" stop-color="#3A7BD5"/>
</linearGradient>
<linearGradient id="paint1_linear" x1="156.961" y1="23" x2="66.1805" y2="46.7108" gradientUnits="userSpaceOnUse">
<stop stop-color="#00D2FF"/>
<stop offset="1" stop-color="#3A7BD5"/>
</linearGradient>
</defs>
</svg>
