<svg width="206" height="208" viewBox="0 0 206 208" fill="none" xmlns="http://www.w3.org/2000/svg">
<g filter="url(#filter0_d)">
<path fill-rule="evenodd" clip-rule="evenodd" d="M135.769 -19.5911C151.048 -24.6207 167.744 -25.9263 182.84 -20.3701C198.061 -14.7679 209.591 -2.62637 218.566 10.883C227.622 24.5131 236.062 40.091 233.776 56.2946C231.558 72.0132 217.38 82.2799 206.821 94.1333C196.849 105.329 188.147 118.185 174.064 123.327C159.218 128.748 141.913 130.119 127.812 122.982C114.204 116.094 110.372 99.3254 101.767 86.7335C92.8707 73.7172 77.0826 63.8163 76.6056 48.0577C76.1214 32.0588 88.8194 19.1585 99.3565 7.10999C109.513 -4.50371 121.114 -14.7671 135.769 -19.5911Z" fill="url(#paint0_linear)"/>
</g>
<defs>
<filter id="filter0_d" x="0.592285" y="-63.9884" width="277.562" height="271.86" filterUnits="userSpaceOnUse" color-interpolation-filters="sRGB">
<feFlood flood-opacity="0" result="BackgroundImageFix"/>
<feColorMatrix in="SourceAlpha" type="matrix" values="0 0 0 0 0 0 0 0 0 0 0 0 0 0 0 0 0 0 127 0"/>
<feOffset dx="-16" dy="20"/>
<feGaussianBlur stdDeviation="30"/>
<feColorMatrix type="matrix" values="0 0 0 0 0 0 0 0 0 0 0 0 0 0 0 0 0 0 0.18 0"/>
<feBlend mode="normal" in2="BackgroundImageFix" result="effect1_dropShadow"/>
<feBlend mode="normal" in="SourceGraphic" in2="effect1_dropShadow" result="shape"/>
</filter>
<linearGradient id="paint0_linear" x1="101.414" y1="143.115" x2="252.604" y2="97.8822" gradientUnits="userSpaceOnUse">
<stop stop-color="#00D2FF"/>
<stop offset="1" stop-color="#3A7BD5"/>
</linearGradient>
</defs>
</svg>
