<svg width="349" height="329" viewBox="0 0 349 329" fill="none" xmlns="http://www.w3.org/2000/svg">
<g filter="url(#filter0_d)">
<path fill-rule="evenodd" clip-rule="evenodd" d="M196.369 44.9912C230.056 44.8384 270.063 29.3089 293.184 53.8187C316.219 78.2381 298.994 117.222 296.057 150.669C293.533 179.423 298.302 211.827 277.551 231.882C256.971 251.772 224.788 250.362 196.369 247.015C171.684 244.107 151.497 230.554 132.29 214.772C109.992 196.451 84.7463 178.98 79.1115 150.669C72.4611 117.256 75.1265 77.497 100.429 54.6933C125.255 32.3191 162.955 45.1428 196.369 44.9912Z" fill="url(#paint0_linear)"/>
</g>
<defs>
<filter id="filter0_d" x="0" y="0" width="349" height="329" filterUnits="userSpaceOnUse" color-interpolation-filters="sRGB">
<feFlood flood-opacity="0" result="BackgroundImageFix"/>
<feColorMatrix in="SourceAlpha" type="matrix" values="0 0 0 0 0 0 0 0 0 0 0 0 0 0 0 0 0 0 127 0"/>
<feOffset dx="-16" dy="20"/>
<feGaussianBlur stdDeviation="30"/>
<feColorMatrix type="matrix" values="0 0 0 0 0 0 0 0 0 0 0 0 0 0 0 0 0 0 0.18 0"/>
<feBlend mode="normal" in2="BackgroundImageFix" result="effect1_dropShadow"/>
<feBlend mode="normal" in="SourceGraphic" in2="effect1_dropShadow" result="shape"/>
</filter>
<linearGradient id="paint0_linear" x1="76" y1="249" x2="311.179" y2="241.799" gradientUnits="userSpaceOnUse">
<stop stop-color="#00D2FF"/>
<stop offset="1" stop-color="#3A7BD5"/>
</linearGradient>
</defs>
</svg>
