<svg width="426" height="453" viewBox="0 0 426 453" fill="none" xmlns="http://www.w3.org/2000/svg">
<g filter="url(#filter0_d)">
<path fill-rule="evenodd" clip-rule="evenodd" d="M298.353 41.3912C347.282 37.5776 400.952 39.5877 436.247 73.7391C471.91 108.247 472.514 162.218 474.509 211.841C476.625 264.489 489.38 329.227 447.814 361.528C406.746 393.441 350.333 348.636 298.353 348.729C246.171 348.823 192.756 389.521 148.355 362.065C99.3777 331.779 70.1558 269.082 76.9844 211.841C83.4331 157.784 137.277 126.865 180.372 93.6825C215.815 66.3918 253.78 44.8653 298.353 41.3912Z" fill="url(#paint0_linear)"/>
</g>
<defs>
<filter id="filter0_d" x="0" y="0" width="522" height="453" filterUnits="userSpaceOnUse" color-interpolation-filters="sRGB">
<feFlood flood-opacity="0" result="BackgroundImageFix"/>
<feColorMatrix in="SourceAlpha" type="matrix" values="0 0 0 0 0 0 0 0 0 0 0 0 0 0 0 0 0 0 127 0"/>
<feOffset dx="-16" dy="20"/>
<feGaussianBlur stdDeviation="30"/>
<feColorMatrix type="matrix" values="0 0 0 0 0 0 0 0 0 0 0 0 0 0 0 0 0 0 0.18 0"/>
<feBlend mode="normal" in2="BackgroundImageFix" result="effect1_dropShadow"/>
<feBlend mode="normal" in="SourceGraphic" in2="effect1_dropShadow" result="shape"/>
</filter>
<linearGradient id="paint0_linear" x1="76" y1="373" x2="488.764" y2="359.076" gradientUnits="userSpaceOnUse">
<stop stop-color="#38EF7D"/>
<stop offset="1" stop-color="#0575E6"/>
</linearGradient>
</defs>
</svg>
