<svg width="177" height="312" viewBox="0 0 177 312" fill="none" xmlns="http://www.w3.org/2000/svg">
<path fill-rule="evenodd" clip-rule="evenodd" d="M26.197 64.0536C42.48 64.5561 57.5069 69.8827 72.0361 77.3692C89.2851 86.2571 110.556 93.0122 117.778 111.243C125.076 129.666 112.424 149.156 108.151 168.536C103.297 190.551 107.649 217.21 91.0981 232.248C74.3482 247.466 48.6489 243.885 26.197 242.995C4.60049 242.139 -17.325 239.698 -35.1261 227.244C-53.2143 214.588 -66.8247 195.614 -72.3795 174.024C-77.7455 153.168 -74.6793 130.539 -64.9333 111.391C-56.0704 93.9782 -38.8892 83.3995 -21.7108 74.4761C-6.80472 66.7332 9.46386 63.5372 26.197 64.0536Z" stroke="#A987E4" stroke-width="2"/>
<path fill-rule="evenodd" clip-rule="evenodd" d="M47.3479 55.061C71.7758 56.0254 93.3211 71.028 109.799 88.1326C124.202 103.085 128.688 123.428 132.408 143.358C135.647 160.714 136.928 178.625 129.723 194.876C122.882 210.307 108.924 221.391 93.903 230.209C79.8048 238.486 63.5361 239.81 47.3479 243.236C25.4892 247.863 3.66695 261.303 -17.2572 253.736C-39.5921 245.659 -59.7949 225.877 -62.7737 203.413C-65.7062 181.299 -39.3097 166.298 -31.6464 145.224C-24.2075 124.768 -33.5926 99.6986 -19.0042 83.0475C-3.15658 64.9592 22.55 54.0819 47.3479 55.061Z" stroke="#A987E4" stroke-width="2"/>
<g filter="url(#filter0_d)">
<path fill-rule="evenodd" clip-rule="evenodd" d="M14.5678 40.0861C29.0016 40.8853 42.1964 47.6157 53.5131 56.6092C64.4338 65.288 71.3391 77.1999 77.1975 89.8585C83.8579 104.25 94.9166 119.641 89.5982 134.581C84.2844 149.507 64.8717 152.493 51.7418 161.364C39.2279 169.818 29.4975 182.991 14.5678 185.27C-1.56702 187.732 -18.85 183.954 -31.8811 174.128C-44.7999 164.386 -49.7866 148.122 -55.0036 132.807C-60.2989 117.263 -67.42 100.834 -62.1467 85.2827C-56.8955 69.7962 -41.7331 60.4172 -27.6427 52.1157C-14.7214 44.5031 -0.40683 39.257 14.5678 40.0861Z" fill="url(#paint0_linear)"/>
</g>
<g filter="url(#filter1_d)">
<path fill-rule="evenodd" clip-rule="evenodd" d="M104.338 176.2C113.597 175.635 124.181 175.804 129.863 183.101C135.495 190.335 132.264 200.318 130.028 209.194C127.879 217.728 125.938 227.752 117.769 231.115C109.842 234.379 101.998 227.856 94.4209 223.854C87.4256 220.159 79.3607 217.091 76.9847 209.572C74.4261 201.476 77.0652 192.568 82.4557 185.992C87.7743 179.503 95.9398 176.712 104.338 176.2Z" fill="url(#paint1_linear)"/>
</g>
<defs>
<filter id="filter0_d" x="-140" y="0" width="275" height="266" filterUnits="userSpaceOnUse" color-interpolation-filters="sRGB">
<feFlood flood-opacity="0" result="BackgroundImageFix"/>
<feColorMatrix in="SourceAlpha" type="matrix" values="0 0 0 0 0 0 0 0 0 0 0 0 0 0 0 0 0 0 127 0"/>
<feOffset dx="-16" dy="20"/>
<feGaussianBlur stdDeviation="30"/>
<feColorMatrix type="matrix" values="0 0 0 0 0 0 0 0 0 0 0 0 0 0 0 0 0 0 0.18 0"/>
<feBlend mode="normal" in2="BackgroundImageFix" result="effect1_dropShadow"/>
<feBlend mode="normal" in="SourceGraphic" in2="effect1_dropShadow" result="shape"/>
</filter>
<filter id="filter1_d" x="0" y="136" width="177" height="176" filterUnits="userSpaceOnUse" color-interpolation-filters="sRGB">
<feFlood flood-opacity="0" result="BackgroundImageFix"/>
<feColorMatrix in="SourceAlpha" type="matrix" values="0 0 0 0 0 0 0 0 0 0 0 0 0 0 0 0 0 0 127 0"/>
<feOffset dx="-16" dy="20"/>
<feGaussianBlur stdDeviation="30"/>
<feColorMatrix type="matrix" values="0 0 0 0 0 0 0 0 0 0 0 0 0 0 0 0 0 0 0.18 0"/>
<feBlend mode="normal" in2="BackgroundImageFix" result="effect1_dropShadow"/>
<feBlend mode="normal" in="SourceGraphic" in2="effect1_dropShadow" result="shape"/>
</filter>
<linearGradient id="paint0_linear" x1="-64" y1="186" x2="95.1912" y2="181.277" gradientUnits="userSpaceOnUse">
<stop stop-color="#38EF7D"/>
<stop offset="1" stop-color="#0575E6"/>
</linearGradient>
<linearGradient id="paint1_linear" x1="76" y1="232" x2="134.545" y2="230.335" gradientUnits="userSpaceOnUse">
<stop stop-color="#38EF7D"/>
<stop offset="1" stop-color="#0575E6"/>
</linearGradient>
</defs>
</svg>
