<svg width="151" height="298" viewBox="0 0 151 298" fill="none" xmlns="http://www.w3.org/2000/svg">
<path fill-rule="evenodd" clip-rule="evenodd" d="M-161.933 136.412C-161.305 116.204 -154.647 97.5556 -145.288 79.5245C-134.179 58.1181 -125.735 31.7204 -102.947 22.7581C-79.9171 13.7007 -55.5544 29.4023 -31.3295 34.7051C-3.81087 40.7289 29.5126 35.3274 48.3096 55.8681C67.332 76.6551 62.8563 108.549 61.7437 136.412C60.6735 163.214 57.623 190.424 42.0544 212.516C26.2348 234.964 2.51807 251.854 -24.4694 258.748C-50.5395 265.407 -78.8263 261.602 -102.761 249.507C-124.527 238.508 -137.751 217.186 -148.905 195.867C-158.583 177.368 -162.578 157.178 -161.933 136.412Z" stroke="#8773CC" stroke-width="2"/>
<path fill-rule="evenodd" clip-rule="evenodd" d="M-172.924 109.458C-171.72 79.232 -152.985 52.5724 -131.626 32.1836C-112.954 14.3607 -87.5497 8.81072 -62.6622 4.2076C-40.9891 0.19901 -18.6222 -1.3853 1.67102 7.52953C20.9412 15.9949 34.7817 33.2657 45.7939 51.8525C56.1294 69.2971 57.7831 89.4276 62.0615 109.458C67.8386 136.506 84.6216 163.508 75.1725 189.399C65.0863 217.036 40.3838 242.034 12.332 245.72C-15.2839 249.349 -34.0155 216.686 -60.3316 207.204C-85.8773 197.999 -117.182 209.612 -137.976 191.561C-160.563 171.951 -174.146 140.143 -172.924 109.458Z" stroke="#8773CC" stroke-width="2"/>
<g filter="url(#filter0_d)">
<path fill-rule="evenodd" clip-rule="evenodd" d="M64.8481 62.2184C77.9657 74.245 65.546 97.5886 73.1788 113.673C80.2904 128.66 104.872 132.728 106.159 149.274C107.419 165.461 90.2459 176.57 78.983 188.269C67.6124 200.08 57.0805 216.138 40.7372 217.23C24.5428 218.312 13.1842 202.395 -0.435349 193.577C-12.1344 186.002 -25.4502 180.897 -33.2384 169.334C-41.6595 156.831 -49.7912 141.314 -45.3489 126.893C-40.971 112.68 -21.5421 110.459 -11.6758 99.3337C-0.930118 87.2166 -0.295551 66.7289 14.2702 59.6643C29.8499 52.1079 52.0947 50.5257 64.8481 62.2184Z" fill="url(#paint0_linear)"/>
</g>
<defs>
<filter id="filter0_d" x="-122.604" y="13.7183" width="272.829" height="283.564" filterUnits="userSpaceOnUse" color-interpolation-filters="sRGB">
<feFlood flood-opacity="0" result="BackgroundImageFix"/>
<feColorMatrix in="SourceAlpha" type="matrix" values="0 0 0 0 0 0 0 0 0 0 0 0 0 0 0 0 0 0 127 0"/>
<feOffset dx="-16" dy="20"/>
<feGaussianBlur stdDeviation="30"/>
<feColorMatrix type="matrix" values="0 0 0 0 0 0 0 0 0 0 0 0 0 0 0 0 0 0 0.18 0"/>
<feBlend mode="normal" in2="BackgroundImageFix" result="effect1_dropShadow"/>
<feBlend mode="normal" in="SourceGraphic" in2="effect1_dropShadow" result="shape"/>
</filter>
<linearGradient id="paint0_linear" x1="171.716" y1="80.1815" x2="0.614522" y2="-6.70291" gradientUnits="userSpaceOnUse">
<stop offset="0.0439387" stop-color="#38EF7D"/>
<stop offset="1" stop-color="#0575E6"/>
</linearGradient>
</defs>
</svg>
