<svg width="238" height="254" viewBox="0 0 238 254" fill="none" xmlns="http://www.w3.org/2000/svg">
<path fill-rule="evenodd" clip-rule="evenodd" d="M244.858 117.882C247.714 130.028 246.746 142.204 244.079 154.439C240.913 168.966 240.125 186.044 228.048 195.007C215.844 204.064 198.894 198.573 183.687 199.26C166.412 200.039 147.522 208.552 133.098 199.292C118.502 189.921 116.06 170.197 112.269 153.409C108.622 137.261 106.083 120.554 111.783 104.911C117.575 89.0161 128.935 75.1795 143.831 66.7832C158.221 58.6724 175.597 56.448 191.717 59.857C206.376 62.9571 217.621 73.5683 227.638 84.5062C236.33 93.9971 241.924 105.399 244.858 117.882Z" stroke="#A384D7" stroke-width="2"/>
<path fill-rule="evenodd" clip-rule="evenodd" d="M255.721 131.907C259.822 150.073 252.948 168.907 243.516 184.429C235.272 197.998 221.074 205.339 207.033 212.036C194.805 217.867 181.779 222.367 168.311 220.294C155.523 218.325 144.554 210.256 135.055 200.955C126.14 192.226 121.95 180.518 116.219 169.287C108.479 154.122 94.2132 140.734 95.6973 123.834C97.2814 105.795 107.963 87.0004 124.029 80.3463C139.846 73.7956 156.17 90.2391 173.304 91.6917C189.936 93.1018 206.67 81.2163 221.891 88.6432C238.425 96.7111 251.557 113.466 255.721 131.907Z" stroke="#A384D7" stroke-width="2"/>
<g filter="url(#filter0_d)">
<path fill-rule="evenodd" clip-rule="evenodd" d="M189.87 42.0631C206.056 43.176 222.369 44.9229 234.749 55.4285C248.188 66.8327 257.203 82.8019 258.604 100.39C260.122 119.445 257.787 141.667 242.535 153.152C227.944 164.139 208.095 153.156 189.87 152.149C173.48 151.242 154.58 158.995 142.714 147.632C130.777 136.2 136.548 116.919 135.822 100.39C135.037 82.5093 126.221 61.9197 138.376 48.8022C150.619 35.5896 171.917 40.8287 189.87 42.0631Z" fill="url(#paint0_linear)"/>
</g>
<g filter="url(#filter1_d)">
<path fill-rule="evenodd" clip-rule="evenodd" d="M99.2048 116.873C107.416 115.36 116.457 115.901 122.903 121.195C128.919 126.136 128.149 134.919 130.287 142.4C132.732 150.958 140.799 159.843 136.111 167.416C131.423 174.99 120.007 173.57 111.095 173.407C104.468 173.286 98.673 170.383 93.2134 166.631C87.9406 163.008 83.4796 158.668 81.0417 152.757C77.939 145.235 74.2167 136.752 77.8933 129.488C81.7661 121.836 90.764 118.428 99.2048 116.873Z" fill="url(#paint1_linear)"/>
</g>
<defs>
<filter id="filter0_d" x="56" y="0" width="247" height="238" filterUnits="userSpaceOnUse" color-interpolation-filters="sRGB">
<feFlood flood-opacity="0" result="BackgroundImageFix"/>
<feColorMatrix in="SourceAlpha" type="matrix" values="0 0 0 0 0 0 0 0 0 0 0 0 0 0 0 0 0 0 127 0"/>
<feOffset dx="-16" dy="20"/>
<feGaussianBlur stdDeviation="30"/>
<feColorMatrix type="matrix" values="0 0 0 0 0 0 0 0 0 0 0 0 0 0 0 0 0 0 0.18 0"/>
<feBlend mode="normal" in2="BackgroundImageFix" result="effect1_dropShadow"/>
<feBlend mode="normal" in="SourceGraphic" in2="effect1_dropShadow" result="shape"/>
</filter>
<filter id="filter1_d" x="0.365234" y="76.1387" width="181.184" height="177.478" filterUnits="userSpaceOnUse" color-interpolation-filters="sRGB">
<feFlood flood-opacity="0" result="BackgroundImageFix"/>
<feColorMatrix in="SourceAlpha" type="matrix" values="0 0 0 0 0 0 0 0 0 0 0 0 0 0 0 0 0 0 127 0"/>
<feOffset dx="-16" dy="20"/>
<feGaussianBlur stdDeviation="30"/>
<feColorMatrix type="matrix" values="0 0 0 0 0 0 0 0 0 0 0 0 0 0 0 0 0 0 0.18 0"/>
<feBlend mode="normal" in2="BackgroundImageFix" result="effect1_dropShadow"/>
<feBlend mode="normal" in="SourceGraphic" in2="effect1_dropShadow" result="shape"/>
</filter>
<linearGradient id="paint0_linear" x1="259" y1="40" x2="176.299" y2="183.526" gradientUnits="userSpaceOnUse">
<stop stop-color="#65FFED"/>
<stop offset="1" stop-color="#327BE9"/>
</linearGradient>
<linearGradient id="paint1_linear" x1="100.017" y1="116.682" x2="114.851" y2="187.212" gradientUnits="userSpaceOnUse">
<stop offset="0.289549" stop-color="#40C7FF"/>
<stop offset="1" stop-color="#0035BE"/>
</linearGradient>
</defs>
</svg>
