<svg width="300" height="526" viewBox="0 0 300 526" fill="none" xmlns="http://www.w3.org/2000/svg">
<path fill-rule="evenodd" clip-rule="evenodd" d="M263.531 208.786C264.16 243.353 244.331 275.033 221.056 299.737C200.71 321.331 171.779 329.377 143.38 336.308C118.65 342.344 92.9578 345.661 68.9564 336.86C46.165 328.502 29.0484 309.731 15.1062 289.269C2.02069 270.064 -1.23039 247.208 -7.5022 224.644C-15.9709 194.175 -37.131 164.5 -27.9606 134.324C-18.172 102.112 8.65149 71.9244 40.7606 65.8261C72.3707 59.8226 96.156 95.8233 127.142 104.866C157.221 113.644 192.553 98.2819 217.741 117.474C245.103 138.322 262.893 173.696 263.531 208.786Z" stroke="#9976D3" stroke-width="2"/>
<path fill-rule="evenodd" clip-rule="evenodd" d="M227.883 246.873C228.504 271.679 221.066 295.041 210.027 317.853C196.922 344.937 187.687 377.929 158.301 390.667C128.603 403.539 95.3733 386.18 63.0709 381.551C26.3766 376.292 -17.1481 385.479 -43.3902 361.763C-69.947 337.761 -66.3353 298.341 -66.8665 264.118C-67.3774 231.198 -65.308 197.626 -46.3762 169.359C-27.139 140.637 2.90289 118.114 37.9714 107.588C71.8479 97.4189 109.395 99.9001 141.802 112.873C171.273 124.671 190.227 149.775 206.453 175.035C220.533 196.953 227.245 221.381 227.883 246.873Z" stroke="#9976D3" stroke-width="2"/>
<g filter="url(#filter0_d)">
<path fill-rule="evenodd" clip-rule="evenodd" d="M17.4343 40.3229C61.3701 35.8965 93.3008 77.9206 125.194 108.56C158.169 140.24 200.916 170.869 201 216.674C201.084 262.513 160.689 295.84 125.591 325.186C94.4251 351.244 57.9276 367.665 17.4343 370.152C-26.167 372.83 -74.4247 370.808 -104.828 339.339C-134.976 308.134 -137.792 259.57 -130.847 216.674C-124.919 180.062 -94.4975 156.643 -70.6586 128.292C-42.8873 95.2632 -25.4197 44.6403 17.4343 40.3229Z" fill="url(#paint0_linear)"/>
</g>
<g filter="url(#filter1_d)">
<path fill-rule="evenodd" clip-rule="evenodd" d="M235.895 439.541C220.105 450.909 198.663 441.908 179.743 437.243C160.181 432.42 137.122 430.149 126.999 412.69C116.868 395.217 124.94 373.601 131.868 354.671C138.019 337.862 148.328 323.555 163.232 313.685C179.279 303.058 198.139 293.198 216.673 298.508C235.051 303.773 246.825 321.684 253.625 339.582C259.429 354.859 252.98 370.497 250.129 386.567C246.809 405.288 251.296 428.453 235.895 439.541Z" fill="url(#paint1_linear)"/>
</g>
<defs>
<filter id="filter0_d" x="-210" y="0" width="455" height="451" filterUnits="userSpaceOnUse" color-interpolation-filters="sRGB">
<feFlood flood-opacity="0" result="BackgroundImageFix"/>
<feColorMatrix in="SourceAlpha" type="matrix" values="0 0 0 0 0 0 0 0 0 0 0 0 0 0 0 0 0 0 127 0"/>
<feOffset dx="-16" dy="20"/>
<feGaussianBlur stdDeviation="30"/>
<feColorMatrix type="matrix" values="0 0 0 0 0 0 0 0 0 0 0 0 0 0 0 0 0 0 0.18 0"/>
<feBlend mode="normal" in2="BackgroundImageFix" result="effect1_dropShadow"/>
<feBlend mode="normal" in="SourceGraphic" in2="effect1_dropShadow" result="shape"/>
</filter>
<filter id="filter1_d" x="46.2178" y="257.025" width="253.752" height="268.027" filterUnits="userSpaceOnUse" color-interpolation-filters="sRGB">
<feFlood flood-opacity="0" result="BackgroundImageFix"/>
<feColorMatrix in="SourceAlpha" type="matrix" values="0 0 0 0 0 0 0 0 0 0 0 0 0 0 0 0 0 0 127 0"/>
<feOffset dx="-16" dy="20"/>
<feGaussianBlur stdDeviation="30"/>
<feColorMatrix type="matrix" values="0 0 0 0 0 0 0 0 0 0 0 0 0 0 0 0 0 0 0.18 0"/>
<feBlend mode="normal" in2="BackgroundImageFix" result="effect1_dropShadow"/>
<feBlend mode="normal" in="SourceGraphic" in2="effect1_dropShadow" result="shape"/>
</filter>
<linearGradient id="paint0_linear" x1="33.5" y1="40" x2="33.5" y2="433.062" gradientUnits="userSpaceOnUse">
<stop offset="0.289549" stop-color="#40C7FF"/>
<stop offset="1" stop-color="#0035BE"/>
</linearGradient>
<linearGradient id="paint1_linear" x1="165.921" y1="480.105" x2="171.188" y2="278.702" gradientUnits="userSpaceOnUse">
<stop stop-color="#65FFED"/>
<stop offset="1" stop-color="#327BE9"/>
</linearGradient>
</defs>
</svg>
