<svg width="563" height="544" viewBox="0 0 563 544" fill="none" xmlns="http://www.w3.org/2000/svg">
<path fill-rule="evenodd" clip-rule="evenodd" d="M276.571 3.17229C328.129 6.74073 379.724 15.7741 421.614 45.9926C463.576 76.2631 486.164 123.371 508.093 170.188C533.246 223.887 575.683 279.978 557.672 336.464C539.653 392.972 468.769 408.482 420.908 443.608C372.671 479.01 336.253 547.488 276.571 542.768C216.429 538.012 192.014 463.154 147.945 422.021C111.195 387.72 63.8561 366.25 40.0475 322.005C12.8029 271.375 -8.72393 213.054 5.53498 157.371C20.1577 100.268 64.8457 54.0337 116.141 24.8504C164.202 -2.49269 221.385 -0.64718 276.571 3.17229Z" stroke="#A784E2" stroke-width="2"/>
</svg>
